<svg width="546" height="116" viewBox="0 0 546 116" fill="none" xmlns="http://www.w3.org/2000/svg">
<rect x="0.5" y="0.5" width="545" height="115" rx="0.5" fill="white"/>
<rect x="0.5" y="0.5" width="545" height="115" rx="0.5" stroke="#E3E3E3"/>
<mask id="mask0_2332_82" style="mask-type:alpha" maskUnits="userSpaceOnUse" x="0" y="0" width="353" height="116">
<rect width="353" height="116" rx="3" fill="#A6DCF2"/>
</mask>
<g mask="url(#mask0_2332_82)">
<path opacity="0.2" fill-rule="evenodd" clip-rule="evenodd" d="M168.437 42.0118L287.593 5.44019C297.933 2.20939 299.037 -5.11013 290.061 -10.9211L185.245 -82.8431C174.552 -90.8525 164.385 -93.8367 148.728 -88.0369L29.744 -51.631C19.4037 -48.4002 18.2997 -41.0807 27.2761 -35.2697L127.354 36.7745C138.107 45.1849 148.883 47.3099 168.437 42.0118Z" fill="#0071FF" fill-opacity="0.17"/>
<path opacity="0.25" fill-rule="evenodd" clip-rule="evenodd" d="M61.6559 78.8594L-61.7485 56.1472C-72.29 54.1011 -74.1577 47.0037 -65.9233 40.2823L29.7952 -42.2144C37.9197 -49.3532 52.9337 -53.4495 63.0694 -51.2928L186.474 -28.5805C197.015 -26.5345 198.883 -19.437 190.649 -12.7157L94.9301 69.781C85.4843 78.1519 71.6817 80.5987 61.6559 78.8594Z" fill="#0071FF" fill-opacity="0.17"/>
<path opacity="0.3" fill-rule="evenodd" clip-rule="evenodd" d="M90.9531 24.0097L101.347 -103.242C102.134 -114.139 95.8849 -117.813 87.3776 -111.454L-15.6547 -38.6627C-24.5296 -32.5195 -32.3014 -18.8129 -32.8787 -8.28579L-43.2726 118.966C-44.06 129.863 -37.8106 133.537 -29.3033 127.178L73.7291 54.3866C84.1147 47.2628 90.0081 34.3207 90.9531 24.0097Z" fill="#0071FF" fill-opacity="0.17"/>
</g>
<path d="M83.6176 82H34.3824C33.0324 82 32 80.96 32 79.6V44.4C32 43.04 33.0324 42 34.3824 42H83.6176C84.9676 42 86 43.04 86 44.4V79.6C86 80.96 84.9676 82 83.6176 82Z" fill="#EFEFEF"/>
<path d="M32.0001 44.1805C32.0001 43.2943 33.2872 42 34.1706 42H82.8293C83.6321 42 84.7685 42 84.9692 43.5009C85.0058 43.7746 85.224 44 85.5001 44C85.7762 44 86.0046 43.7747 85.9628 43.5017C85.7308 41.9888 84.4432 41 82.8293 41H34.1706C32.3857 41 31 42.39 31 44.1805V58.9999C31 59.5522 31.4477 60 32.0001 60V44.1805Z" fill="#444444"/>
<path d="M83.6176 82H34.3824C33.0324 82 32 80.9721 32 79.6279V48H86V79.6279C86 80.9721 84.9676 82 83.6176 82Z" fill="white"/>
<path fill-rule="evenodd" clip-rule="evenodd" d="M31 48.8305C31 48.3718 31.3654 48 31.8162 48H70.5C70.7761 48 71 48.2239 71 48.5C71 48.7761 70.7761 49 70.5 49H32V61.5355C32 61.8116 31.7761 62.0355 31.5 62.0355C31.2239 62.0355 31 61.8116 31 61.5355V48.8305ZM85.5 74C85.2239 74 85 74.2239 85 74.5V75.5C85 75.7761 85.2239 76 85.5 76C85.7761 76 86 75.7761 86 75.5V74.5C86 74.2239 85.7761 74 85.5 74ZM58 83.5C58 83.2239 58.2239 83 58.5 83H60.5C60.7761 83 61 83.2239 61 83.5C61 83.7761 60.7761 84 60.5 84H58.5C58.2239 84 58 83.7761 58 83.5Z" fill="#444444"/>
<path d="M35 46C35.5523 46 36 45.5523 36 45C36 44.4477 35.5523 44 35 44C34.4477 44 34 44.4477 34 45C34 45.5523 34.4477 46 35 46Z" fill="#444444"/>
<path d="M39 46C39.5523 46 40 45.5523 40 45C40 44.4477 39.5523 44 39 44C38.4477 44 38 44.4477 38 45C38 45.5523 38.4477 46 39 46Z" fill="#444444"/>
<path d="M43 46C43.5523 46 44 45.5523 44 45C44 44.4477 43.5523 44 43 44C42.4477 44 42 44.4477 42 45C42 45.5523 42.4477 46 43 46Z" fill="#444444"/>
<rect x="35" y="51" width="30" height="1" rx="0.5" fill="#EFEFEF"/>
<rect x="37" y="54" width="30" height="1" rx="0.5" fill="#EFEFEF"/>
<rect x="35" y="57" width="30" height="1" rx="0.5" fill="#EFEFEF"/>
<path d="M50 41L58 33L66 41" stroke="#444444" stroke-linecap="round" stroke-linejoin="round"/>
<path d="M60.1465 29.4278V26.8408H58.9998H57.853V30.0746C57.853 30.0746 59.9936 30.6405 59.9936 32.7425C59.9936 34.2786 58.8469 35.4912 57.3943 35.4912C56.0946 35.4912 55.0242 34.5211 54.8713 33.2276C54.8713 33.3893 54.7949 33.6318 54.7949 33.7935C54.7949 36.2189 56.7062 38.1592 58.9998 38.1592C61.2933 38.1592 63.2047 36.2189 63.2047 33.7935C63.2047 31.6107 61.9814 29.9129 60.1465 29.4278Z" fill="#EFEFEF"/>
<path d="M60.4419 28.8149C60.4419 29.0173 60.5639 29.1998 60.751 29.277C62.4094 29.9619 63.5 31.6656 63.5 33.7935C63.5 36.441 61.4237 38.5 59 38.5C56.5763 38.5 54.5 36.441 54.5 33.7935C54.5 33.7252 54.5079 33.6581 54.5162 33.6023C54.5243 33.5481 54.5348 33.4921 54.5438 33.4445L54.5449 33.4386C54.5547 33.387 54.5629 33.3437 54.5687 33.3042C54.5707 33.2911 54.5721 33.2802 54.5732 33.2714C54.5751 33.2547 54.5762 33.238 54.5765 33.2212C54.5797 33.0199 54.7234 32.896 54.855 32.8874C54.9851 32.8788 55.1403 32.9815 55.164 33.182C55.2929 34.2725 56.2091 35.1505 57.3945 35.1505C58.7101 35.1505 59.6988 34.0637 59.6988 32.7425C59.6988 31.8497 59.252 31.2751 58.7628 30.9055C58.5189 30.7213 58.2726 30.5954 58.0861 30.5156C57.9933 30.4759 57.9166 30.4481 57.864 30.4305C57.8377 30.4217 57.8176 30.4155 57.8046 30.4117L57.8019 30.4109L57.7956 30.409L57.7866 30.4065C57.6689 30.3746 57.5581 30.2499 57.5581 30.0746V26.8408C57.5581 26.6259 57.7162 26.5 57.8532 26.5H60.1468C60.2838 26.5 60.4419 26.6259 60.4419 26.8408V28.8149Z" fill="#AAAAAA" stroke="#444444" stroke-miterlimit="10" stroke-linecap="round" stroke-linejoin="round"/>
<path d="M100 46H75V71H100V46Z" fill="white"/>
<path fill-rule="evenodd" clip-rule="evenodd" d="M74.5 48C74.2239 48 74 47.7761 74 47.5V46C74 45.4477 74.4477 45 75 45H76.5C76.7761 45 77 45.2239 77 45.5C77 45.7761 76.7761 46 76.5 46H75V47.5C75 47.7761 74.7761 48 74.5 48ZM85.25 45.5C85.25 45.2239 85.0261 45 84.75 45H81.25C80.9739 45 80.75 45.2239 80.75 45.5C80.75 45.7761 80.9739 46 81.25 46H84.75C85.0261 46 85.25 45.7761 85.25 45.5ZM90.25 45C89.9739 45 89.75 45.2239 89.75 45.5C89.75 45.7761 89.9739 46 90.25 46H93.75C94.0261 46 94.25 45.7761 94.25 45.5C94.25 45.2239 94.0261 45 93.75 45H90.25ZM98.5 45C98.224 45 98 45.2239 98 45.5C98 45.7761 98.224 46 98.5 46H100V47.5C100 47.7761 100.224 48 100.5 48C100.776 48 101 47.7761 101 47.5V46C101 45.4477 100.552 45 100 45H99.5H98.5ZM101 52.25C101 51.9739 100.776 51.75 100.5 51.75C100.224 51.75 100 51.9739 100 52.25V55.75C100 56.0261 100.224 56.25 100.5 56.25C100.776 56.25 101 56.0261 101 55.75V52.25ZM101 61.25C101 60.9739 100.776 60.75 100.5 60.75C100.224 60.75 100 60.9739 100 61.25V64.75C100 65.0261 100.224 65.25 100.5 65.25C100.776 65.25 101 65.0261 101 64.75V61.25ZM101 69.5C101 69.2239 100.776 69 100.5 69C100.224 69 100 69.2239 100 69.5V71H98.5C98.224 71 98 71.2239 98 71.5C98 71.7761 98.224 72 98.5 72H100C100.552 72 101 71.5523 101 71V69.5ZM93.75 72C94.0261 72 94.25 71.7761 94.25 71.5C94.25 71.2239 94.0261 71 93.75 71H90.25C89.9739 71 89.75 71.2239 89.75 71.5C89.75 71.7761 89.9739 72 90.25 72H93.75ZM84.75 72C85.0261 72 85.25 71.7761 85.25 71.5C85.25 71.2239 85.0261 71 84.75 71H81.25C80.9739 71 80.75 71.2239 80.75 71.5C80.75 71.7761 80.9739 72 81.25 72H84.75ZM76.5 72C76.7761 72 77 71.7761 77 71.5C77 71.2239 76.7761 71 76.5 71H75V69.5C75 69.2239 74.7761 69 74.5 69C74.2239 69 74 69.2239 74 69.5V71C74 71.5523 74.4477 72 75 72H76.5ZM74 64.75C74 65.0261 74.2239 65.25 74.5 65.25C74.7761 65.25 75 65.0261 75 64.75V61.25C75 60.9739 74.7761 60.75 74.5 60.75C74.2239 60.75 74 60.9739 74 61.25V64.75ZM74 55.75C74 56.0261 74.2239 56.25 74.5 56.25C74.7761 56.25 75 56.0261 75 55.75V52.25C75 51.9739 74.7761 51.75 74.5 51.75C74.2239 51.75 74 51.9739 74 52.25V55.75Z" fill="#808080"/>
<path d="M74 46C74.5523 46 75 45.5523 75 45C75 44.4477 74.5523 44 74 44C73.4477 44 73 44.4477 73 45C73 45.5523 73.4477 46 74 46Z" fill="#808080"/>
<path d="M101 46C101.552 46 102 45.5523 102 45C102 44.4477 101.552 44 101 44C100.448 44 100 44.4477 100 45C100 45.5523 100.448 46 101 46Z" fill="#808080"/>
<path d="M74 73C74.5523 73 75 72.5523 75 72C75 71.4477 74.5523 71 74 71C73.4477 71 73 71.4477 73 72C73 72.5523 73.4477 73 74 73Z" fill="#808080"/>
<path d="M101 73C101.552 73 102 72.5523 102 72C102 71.4477 101.552 71 101 71C100.448 71 100 71.4477 100 72C100 72.5523 100.448 73 101 73Z" fill="#808080"/>
<path d="M95.4059 68H80.5942C79.1716 68 78 66.8917 78 65.5458V51.4542C78 50.1083 79.1716 49 80.5942 49H95.4059C97.5 49 98 50.1083 98 51.4542V65.4667C98 67 97 68 95.4059 68Z" fill="white"/>
<path fill-rule="evenodd" clip-rule="evenodd" d="M80.5058 49C79.5526 49 78 50.4272 78 51.3336V65.6664C78 67 79 68 80.5058 68H95.4942C97 68 98 67 98 65.5V51.3336C98 50 97 49 95.4942 49H80.5058ZM77 51.3336C77 49.5022 78.5799 48 80.5058 48H95.4942C97.42 48 99 49.5022 99 51.3336V65.5859C99 67.4803 97.438 69 95.4942 69H80.5058C78.5799 69 77 67.4978 77 65.6664V51.3336Z" fill="#444444"/>
<path d="M83 56C83 55.4477 82.5523 55 82 55C81.4477 55 81 55.4477 81 56V64C81 64.5523 81.4477 65 82 65C82.5523 65 83 64.5523 83 64V56Z" fill="#FF6F3D"/>
<path d="M87 60C87 59.4477 86.5523 59 86 59C85.4477 59 85 59.4477 85 60V64C85 64.5523 85.4477 65 86 65C86.5523 65 87 64.5523 87 64V60Z" fill="#FF6F3D"/>
<path d="M91 58C91 57.4477 90.5523 57 90 57C89.4477 57 89 57.4477 89 58V64C89 64.5523 89.4477 65 90 65C90.5523 65 91 64.5523 91 64V58Z" fill="#FF6F3D"/>
<path d="M95 53C95 52.4477 94.5523 52 94 52C93.4477 52 93 52.4477 93 53V64C93 64.5523 93.4477 65 94 65C94.5523 65 95 64.5523 95 64V53Z" fill="#FF6F3D"/>
<path d="M100 77H63V93H100V77Z" fill="white"/>
<path fill-rule="evenodd" clip-rule="evenodd" d="M62.4875 79C62.2183 79 62 78.7817 62 78.5125V77C62 76.4477 62.4477 76 63 76H64.425C64.7011 76 64.925 76.2239 64.925 76.5C64.925 76.7761 64.7011 77 64.425 77H62.975V78.5125C62.975 78.7817 62.7567 79 62.4875 79ZM74.1875 76.5C74.1875 76.2239 73.9636 76 73.6875 76H69.8125C69.5364 76 69.3125 76.2239 69.3125 76.5C69.3125 76.7761 69.5364 77 69.8125 77H73.6875C73.9636 77 74.1875 76.7761 74.1875 76.5ZM79.5625 76C79.2864 76 79.0625 76.2239 79.0625 76.5C79.0625 76.7761 79.2864 77 79.5625 77H83.4375C83.7136 77 83.9375 76.7761 83.9375 76.5C83.9375 76.2239 83.7136 76 83.4375 76H79.5625ZM89.3125 76C89.0364 76 88.8125 76.2239 88.8125 76.5C88.8125 76.7761 89.0364 77 89.3125 77H93.1875C93.4636 77 93.6875 76.7761 93.6875 76.5C93.6875 76.2239 93.4636 76 93.1875 76H89.3125ZM98.575 76C98.299 76 98.075 76.2239 98.075 76.5C98.075 76.7761 98.299 77 98.575 77H100.025V78.5125C100.025 78.7817 100.243 79 100.512 79C100.782 79 101 78.7817 101 78.5125V77C101 76.4477 100.552 76 100 76H98.575ZM101 83.2375C101 82.9683 100.782 82.75 100.512 82.75C100.243 82.75 100.025 82.9683 100.025 83.2375V86.7625C100.025 87.0317 100.243 87.25 100.512 87.25C100.782 87.25 101 87.0317 101 86.7625V83.2375ZM101 91.488C101 91.218 100.782 91 100.512 91C100.243 91 100.025 91.218 100.025 91.488V93H98.575C98.299 93 98.075 93.224 98.075 93.5C98.075 93.776 98.299 94 98.575 94H100C100.552 94 101 93.552 101 93V91.488ZM93.1875 94C93.4636 94 93.6875 93.776 93.6875 93.5C93.6875 93.224 93.4636 93 93.1875 93H89.3125C89.0364 93 88.8125 93.224 88.8125 93.5C88.8125 93.776 89.0364 94 89.3125 94H93.1875ZM83.4375 94C83.7136 94 83.9375 93.776 83.9375 93.5C83.9375 93.224 83.7136 93 83.4375 93H79.5625C79.2864 93 79.0625 93.224 79.0625 93.5C79.0625 93.776 79.2864 94 79.5625 94H83.4375ZM73.6875 94C73.9636 94 74.1875 93.776 74.1875 93.5C74.1875 93.224 73.9636 93 73.6875 93H69.8125C69.5364 93 69.3125 93.224 69.3125 93.5C69.3125 93.776 69.5364 94 69.8125 94H73.6875ZM64.425 94C64.7011 94 64.925 93.776 64.925 93.5C64.925 93.224 64.7011 93 64.425 93H62.975V91.488C62.975 91.218 62.7567 91 62.4875 91C62.2183 91 62 91.218 62 91.488V93C62 93.552 62.4477 94 63 94H64.425ZM62 86.7625C62 87.0317 62.2183 87.25 62.4875 87.25C62.7567 87.25 62.975 87.0317 62.975 86.7625V83.2375C62.975 82.9683 62.7567 82.75 62.4875 82.75C62.2183 82.75 62 82.9683 62 83.2375V86.7625Z" fill="#808080"/>
<path d="M62 77C62.5523 77 63 76.5523 63 76C63 75.4477 62.5523 75 62 75C61.4477 75 61 75.4477 61 76C61 76.5523 61.4477 77 62 77Z" fill="#808080"/>
<path d="M101 77C101.552 77 102 76.5523 102 76C102 75.4477 101.552 75 101 75C100.448 75 100 75.4477 100 76C100 76.5523 100.448 77 101 77Z" fill="#808080"/>
<path d="M62 95C62.5523 95 63 94.552 63 94C63 93.448 62.5523 93 62 93C61.4477 93 61 93.448 61 94C61 94.552 61.4477 95 62 95Z" fill="#808080"/>
<path d="M101 95C101.552 95 102 94.552 102 94C102 93.448 101.552 93 101 93C100.448 93 100 93.448 100 94C100 94.552 100.448 95 101 95Z" fill="#808080"/>
<path d="M72 80H67C66.4477 80 66 80.4477 66 81C66 81.5523 66.4477 82 67 82H72C72.5523 82 73 81.5523 73 81C73 80.4477 72.5523 80 72 80Z" fill="#BDECFF"/>
<path d="M72 84H67C66.4477 84 66 84.4477 66 85C66 85.5523 66.4477 86 67 86H72C72.5523 86 73 85.5523 73 85C73 84.4477 72.5523 84 72 84Z" fill="#BDECFF"/>
<path d="M72 88H67C66.4477 88 66 88.4477 66 89C66 89.5523 66.4477 90 67 90H72C72.5523 90 73 89.5523 73 89C73 88.4477 72.5523 88 72 88Z" fill="#BDECFF"/>
<path d="M80 80H75C74.4477 80 74 80.4477 74 81C74 81.5523 74.4477 82 75 82H80C80.5523 82 81 81.5523 81 81C81 80.4477 80.5523 80 80 80Z" fill="#BDECFF"/>
<path d="M80 84H75C74.4477 84 74 84.4477 74 85C74 85.5523 74.4477 86 75 86H80C80.5523 86 81 85.5523 81 85C81 84.4477 80.5523 84 80 84Z" fill="#BDECFF"/>
<path d="M80 88H75C74.4477 88 74 88.4477 74 89C74 89.5523 74.4477 90 75 90H80C80.5523 90 81 89.5523 81 89C81 88.4477 80.5523 88 80 88Z" fill="#BDECFF"/>
<path d="M88 80H83C82.4477 80 82 80.4477 82 81C82 81.5523 82.4477 82 83 82H88C88.5523 82 89 81.5523 89 81C89 80.4477 88.5523 80 88 80Z" fill="#BDECFF"/>
<path d="M88 84H83C82.4477 84 82 84.4477 82 85C82 85.5523 82.4477 86 83 86H88C88.5523 86 89 85.5523 89 85C89 84.4477 88.5523 84 88 84Z" fill="#BDECFF"/>
<path d="M88 88H83C82.4477 88 82 88.4477 82 89C82 89.5523 82.4477 90 83 90H88C88.5523 90 89 89.5523 89 89C89 88.4477 88.5523 88 88 88Z" fill="#BDECFF"/>
<path d="M96 80H91C90.4477 80 90 80.4477 90 81C90 81.5523 90.4477 82 91 82H96C96.5523 82 97 81.5523 97 81C97 80.4477 96.5523 80 96 80Z" fill="#BDECFF"/>
<path d="M96 84H91C90.4477 84 90 84.4477 90 85C90 85.5523 90.4477 86 91 86H96C96.5523 86 97 85.5523 97 85C97 84.4477 96.5523 84 96 84Z" fill="#BDECFF"/>
<path d="M96 88H91C90.4477 88 90 88.4477 90 89C90 89.5523 90.4477 90 91 90H96C96.5523 90 97 89.5523 97 89C97 88.4477 96.5523 88 96 88Z" fill="#BDECFF"/>
<path d="M56 64H22V88H56V64Z" fill="white"/>
<path d="M49.6364 68H28.3636C27.0242 68 26 68.9905 26 70.2857V81.7143C26 83.0095 27.0242 84 28.3636 84H49.6364C50.9758 84 52 83.0095 52 81.7143V70.2857C52 68.9905 50.9758 68 49.6364 68Z" fill="white"/>
<path d="M40.5758 80.4483L34.2727 73L26 82.5172C26 83.9241 27.0242 85 28.3636 85H49.6364C50.9758 85 52 83.9241 52 82.5172L45.303 75.4828L40.5758 80.4483Z" fill="#FF6F3D"/>
<path d="M41 74C42.1046 74 43 73.1046 43 72C43 70.8954 42.1046 70 41 70C39.8954 70 39 70.8954 39 72C39 73.1046 39.8954 74 41 74Z" fill="#FF6F3D"/>
<path fill-rule="evenodd" clip-rule="evenodd" d="M25 70.1508C25 68.377 26.4093 67 28.2246 67H49.7754C51.5907 67 53 68.377 53 70.1508V81.8492C53 83.623 51.5907 85 49.7754 85H28.2246C26.4093 85 25 83.623 25 81.8492V70.1508ZM28.2246 68C27 68 26 69 26 70.1508V81.8492C26 83 27 84 28.2246 84H49.7754C51 84 52 83 52 81.8492V70.1508C52 69 51 68 49.7754 68H28.2246Z" fill="#444444"/>
<path d="M21 64C21.5523 64 22 63.5523 22 63C22 62.4477 21.5523 62 21 62C20.4477 62 20 62.4477 20 63C20 63.5523 20.4477 64 21 64Z" fill="#808080"/>
<path d="M57 64C57.5523 64 58 63.5523 58 63C58 62.4477 57.5523 62 57 62C56.4477 62 56 62.4477 56 63C56 63.5523 56.4477 64 57 64Z" fill="#808080"/>
<path d="M21 90C21.5523 90 22 89.5523 22 89C22 88.4477 21.5523 88 21 88C20.4477 88 20 88.4477 20 89C20 89.5523 20.4477 90 21 90Z" fill="#808080"/>
<path d="M57 90C57.5523 90 58 89.5523 58 89C58 88.4477 57.5523 88 57 88C56.4477 88 56 88.4477 56 89C56 89.5523 56.4477 90 57 90Z" fill="#808080"/>
<path fill-rule="evenodd" clip-rule="evenodd" d="M21.5294 66.12C21.237 66.12 21 65.883 21 65.5906V64C21 63.4477 21.4477 63 22 63H23.48C23.7672 63 24 63.2328 24 63.52C24 63.8072 23.7672 64.04 23.48 64.04H22.0588V65.5906C22.0588 65.883 21.8218 66.12 21.5294 66.12ZM30.52 63C30.2328 63 30 63.2328 30 63.52C30 63.8072 30.2328 64.04 30.52 64.04H35.48C35.7672 64.04 36 63.8072 36 63.52C36 63.2328 35.7672 63 35.48 63H30.52ZM42.52 63C42.2328 63 42 63.2328 42 63.52C42 63.8072 42.2328 64.04 42.52 64.04H47.48C47.7672 64.04 48 63.8072 48 63.52C48 63.2328 47.7672 63 47.48 63H42.52ZM54.52 63C54.2328 63 54 63.2328 54 63.52C54 63.8072 54.2328 64.04 54.52 64.04H55.9412V65.5906C55.9412 65.883 56.1782 66.12 56.4706 66.12C56.763 66.12 57 65.883 57 65.5906V64C57 63.4477 56.5523 63 56 63H54.52ZM56.4706 73.8333C56.763 73.8333 57 73.5963 57 73.3039V70.0294C57 69.737 56.763 69.5 56.4706 69.5C56.1782 69.5 55.9412 69.737 55.9412 70.0294V73.3039C55.9412 73.5963 56.1782 73.8333 56.4706 73.8333ZM57 78.6961C57 78.4037 56.763 78.1667 56.4706 78.1667C56.1782 78.1667 55.9412 78.4037 55.9412 78.6961V81.9706C55.9412 82.263 56.1782 82.5 56.4706 82.5C56.763 82.5 57 82.263 57 81.9706V78.6961ZM57 86.4094C57 86.117 56.763 85.88 56.4706 85.88C56.1782 85.88 55.9412 86.117 55.9412 86.4094V87.96H54.52C54.2328 87.96 54 88.1928 54 88.48C54 88.7672 54.2328 89 54.52 89H56C56.5523 89 57 88.5523 57 88V86.4094ZM47.48 89C47.7672 89 48 88.7672 48 88.48C48 88.1928 47.7672 87.96 47.48 87.96H42.52C42.2328 87.96 42 88.1928 42 88.48C42 88.7672 42.2328 89 42.52 89H47.48ZM35.48 89C35.7672 89 36 88.7672 36 88.48C36 88.1928 35.7672 87.96 35.48 87.96H30.52C30.2328 87.96 30 88.1928 30 88.48C30 88.7672 30.2328 89 30.52 89H35.48ZM23.48 89C23.7672 89 24 88.7672 24 88.48C24 88.1928 23.7672 87.96 23.48 87.96H22.0588V86.4094C22.0588 86.117 21.8218 85.88 21.5294 85.88C21.237 85.88 21 86.117 21 86.4094V88C21 88.5523 21.4477 89 22 89H23.48ZM21 81.9706C21 82.263 21.237 82.5 21.5294 82.5C21.8218 82.5 22.0588 82.263 22.0588 81.9706V78.6961C22.0588 78.4037 21.8218 78.1667 21.5294 78.1667C21.237 78.1667 21 78.4037 21 78.6961V81.9706ZM21 73.3039C21 73.5963 21.237 73.8333 21.5294 73.8333C21.8218 73.8333 22.0588 73.5963 22.0588 73.3039V70.0294C22.0588 69.737 21.8218 69.5 21.5294 69.5C21.237 69.5 21 69.737 21 70.0294V73.3039Z" fill="#808080"/>
<path d="M62 23.2087C62 23.4757 61.9375 23.7387 61.818 23.9747L60.7255 26.1317C60.4549 26.666 59.9248 27 59.3475 27H58.6525C58.0752 27 57.5451 26.666 57.2745 26.1317L56.182 23.9747C56.0625 23.7387 56 23.4757 56 23.2087V17.6343C56 16.7317 56.6984 16 57.56 16H60.44C61.3016 16 62 16.7317 62 17.6343V23.2087Z" fill="#EFEFEF"/>
<path fill-rule="evenodd" clip-rule="evenodd" d="M59.3475 26.1317L61 23.2087V17H57V23.2087L58.6525 26.1317H59.3475ZM61.818 23.9747C61.9375 23.7387 62 23.4757 62 23.2087V17.6343C62 16.7317 61.3016 16 60.44 16H57.56C56.6984 16 56 16.7317 56 17.6343V23.2087C56 23.4757 56.0625 23.7387 56.182 23.9747L57.2745 26.1317C57.5451 26.666 58.0752 27 58.6525 27H59.3475C59.9248 27 60.4549 26.666 60.7255 26.1317L61.818 23.9747Z" fill="#444444"/>
<path d="M151.233 35.7273C151.233 37.2803 150.949 38.6155 150.381 39.733C149.813 40.8456 149.034 41.7027 148.044 42.304C147.059 42.9006 145.939 43.1989 144.685 43.1989C143.425 43.1989 142.301 42.9006 141.311 42.304C140.326 41.7027 139.55 40.8433 138.982 39.7259C138.413 38.6084 138.129 37.2756 138.129 35.7273C138.129 34.1742 138.413 32.8414 138.982 31.7287C139.55 30.6113 140.326 29.7543 141.311 29.1577C142.301 28.5563 143.425 28.2557 144.685 28.2557C145.939 28.2557 147.059 28.5563 148.044 29.1577C149.034 29.7543 149.813 30.6113 150.381 31.7287C150.949 32.8414 151.233 34.1742 151.233 35.7273ZM149.06 35.7273C149.06 34.5436 148.868 33.5469 148.484 32.7372C148.106 31.9228 147.585 31.3073 146.922 30.8906C146.264 30.4692 145.518 30.2585 144.685 30.2585C143.847 30.2585 143.098 30.4692 142.44 30.8906C141.782 31.3073 141.261 31.9228 140.878 32.7372C140.499 33.5469 140.31 34.5436 140.31 35.7273C140.31 36.911 140.499 37.91 140.878 38.7244C141.261 39.5341 141.782 40.1496 142.44 40.571C143.098 40.9877 143.847 41.196 144.685 41.196C145.518 41.196 146.264 40.9877 146.922 40.571C147.585 40.1496 148.106 39.5341 148.484 38.7244C148.868 37.91 149.06 36.911 149.06 35.7273ZM165.709 28.4545V43H163.692L156.299 32.3324H156.164V43H153.969V28.4545H156L163.401 39.1364H163.536V28.4545H165.709ZM168.911 43V28.4545H171.105V41.1108H177.696V43H168.911ZM178.003 28.4545H180.496L184.296 35.0668H184.452L188.252 28.4545H190.745L185.468 37.2898V43H183.28V37.2898L178.003 28.4545ZM204.71 35.7273C204.71 37.2803 204.425 38.6155 203.857 39.733C203.289 40.8456 202.51 41.7027 201.521 42.304C200.536 42.9006 199.416 43.1989 198.161 43.1989C196.902 43.1989 195.777 42.9006 194.788 42.304C193.803 41.7027 193.026 40.8433 192.458 39.7259C191.89 38.6084 191.606 37.2756 191.606 35.7273C191.606 34.1742 191.89 32.8414 192.458 31.7287C193.026 30.6113 193.803 29.7543 194.788 29.1577C195.777 28.5563 196.902 28.2557 198.161 28.2557C199.416 28.2557 200.536 28.5563 201.521 29.1577C202.51 29.7543 203.289 30.6113 203.857 31.7287C204.425 32.8414 204.71 34.1742 204.71 35.7273ZM202.536 35.7273C202.536 34.5436 202.344 33.5469 201.961 32.7372C201.582 31.9228 201.061 31.3073 200.398 30.8906C199.74 30.4692 198.995 30.2585 198.161 30.2585C197.323 30.2585 196.575 30.4692 195.917 30.8906C195.259 31.3073 194.738 31.9228 194.354 32.7372C193.976 33.5469 193.786 34.5436 193.786 35.7273C193.786 36.911 193.976 37.91 194.354 38.7244C194.738 39.5341 195.259 40.1496 195.917 40.571C196.575 40.9877 197.323 41.196 198.161 41.196C198.995 41.196 199.74 40.9877 200.398 40.571C201.061 40.1496 201.582 39.5341 201.961 38.7244C202.344 37.91 202.536 36.911 202.536 35.7273ZM207.446 43V28.4545H216.466V30.3438H209.64V34.7756H215.819V36.6577H209.64V43H207.446ZM219.164 43V28.4545H228.184V30.3438H221.359V34.7756H227.538V36.6577H221.359V43H219.164ZM233.078 28.4545V43H230.883V28.4545H233.078ZM248.355 33.1847H246.139C246.054 32.7112 245.895 32.2945 245.663 31.9347C245.431 31.5748 245.147 31.2694 244.811 31.0185C244.475 30.7675 244.098 30.5781 243.681 30.4503C243.27 30.3224 242.832 30.2585 242.368 30.2585C241.529 30.2585 240.779 30.4692 240.116 30.8906C239.458 31.312 238.937 31.9299 238.554 32.7443C238.175 33.5587 237.985 34.553 237.985 35.7273C237.985 36.911 238.175 37.91 238.554 38.7244C238.937 39.5388 239.46 40.1544 240.123 40.571C240.786 40.9877 241.532 41.196 242.36 41.196C242.82 41.196 243.255 41.1345 243.667 41.0114C244.084 40.8835 244.46 40.6965 244.797 40.4503C245.133 40.2041 245.417 39.9034 245.649 39.5483C245.886 39.1884 246.049 38.7765 246.139 38.3125L248.355 38.3196C248.236 39.0346 248.007 39.6927 247.666 40.294C247.33 40.8906 246.896 41.4067 246.366 41.8423C245.841 42.2732 245.239 42.607 244.562 42.8438C243.885 43.0805 243.146 43.1989 242.346 43.1989C241.087 43.1989 239.965 42.9006 238.98 42.304C237.995 41.7027 237.218 40.8433 236.65 39.7259C236.087 38.6084 235.805 37.2756 235.805 35.7273C235.805 34.1742 236.089 32.8414 236.657 31.7287C237.225 30.6113 238.002 29.7543 238.987 29.1577C239.972 28.5563 241.092 28.2557 242.346 28.2557C243.118 28.2557 243.838 28.367 244.505 28.5895C245.178 28.8073 245.781 29.1293 246.316 29.5554C246.851 29.9768 247.294 30.4929 247.645 31.1037C247.995 31.7098 248.232 32.4034 248.355 33.1847ZM250.981 43V28.4545H260.1V30.3438H253.175V34.7756H259.624V36.6577H253.175V41.1108H260.185V43H250.981ZM273.033 43H268.325V28.4545H273.183C274.608 28.4545 275.832 28.7457 276.854 29.3281C277.877 29.9058 278.661 30.7367 279.205 31.821C279.754 32.9006 280.029 34.1955 280.029 35.706C280.029 37.2211 279.752 38.5232 279.198 39.6122C278.649 40.7012 277.853 41.5393 276.812 42.1264C275.77 42.7088 274.511 43 273.033 43ZM270.519 41.0824H272.913C274.021 41.0824 274.942 40.8741 275.675 40.4574C276.409 40.036 276.959 39.4276 277.323 38.6321C277.688 37.8319 277.87 36.8565 277.87 35.706C277.87 34.5649 277.688 33.5966 277.323 32.8011C276.963 32.0057 276.426 31.402 275.711 30.9901C274.996 30.5781 274.108 30.3722 273.048 30.3722H270.519V41.0824ZM287.183 43.2202C286.16 43.2202 285.268 42.9858 284.505 42.517C283.743 42.0483 283.151 41.3925 282.73 40.5497C282.308 39.7069 282.098 38.7221 282.098 37.5952C282.098 36.4635 282.308 35.474 282.73 34.6264C283.151 33.7789 283.743 33.1207 284.505 32.652C285.268 32.1832 286.16 31.9489 287.183 31.9489C288.206 31.9489 289.098 32.1832 289.86 32.652C290.623 33.1207 291.215 33.7789 291.636 34.6264C292.057 35.474 292.268 36.4635 292.268 37.5952C292.268 38.7221 292.057 39.7069 291.636 40.5497C291.215 41.3925 290.623 42.0483 289.86 42.517C289.098 42.9858 288.206 43.2202 287.183 43.2202ZM287.19 41.4375C287.853 41.4375 288.402 41.2623 288.838 40.9119C289.273 40.5616 289.595 40.0952 289.804 39.5128C290.017 38.9304 290.123 38.2888 290.123 37.5881C290.123 36.892 290.017 36.2528 289.804 35.6705C289.595 35.0833 289.273 34.6122 288.838 34.2571C288.402 33.902 287.853 33.7244 287.19 33.7244C286.522 33.7244 285.968 33.902 285.528 34.2571C285.092 34.6122 284.768 35.0833 284.555 35.6705C284.347 36.2528 284.243 36.892 284.243 37.5881C284.243 38.2888 284.347 38.9304 284.555 39.5128C284.768 40.0952 285.092 40.5616 285.528 40.9119C285.968 41.2623 286.522 41.4375 287.19 41.4375ZM299.234 43.2202C298.178 43.2202 297.269 42.9811 296.506 42.5028C295.749 42.0199 295.166 41.3546 294.759 40.5071C294.352 39.6596 294.148 38.6889 294.148 37.5952C294.148 36.4872 294.357 35.5095 294.773 34.6619C295.19 33.8097 295.777 33.1444 296.535 32.6662C297.292 32.188 298.185 31.9489 299.212 31.9489C300.041 31.9489 300.78 32.1027 301.428 32.4105C302.077 32.7135 302.6 33.1397 302.998 33.6889C303.4 34.2382 303.639 34.8797 303.715 35.6136H301.648C301.535 35.1023 301.274 34.6619 300.867 34.2926C300.465 33.9233 299.925 33.7386 299.248 33.7386C298.656 33.7386 298.138 33.8949 297.692 34.2074C297.252 34.5152 296.909 34.9555 296.663 35.5284C296.416 36.0966 296.293 36.7689 296.293 37.5455C296.293 38.3409 296.414 39.0275 296.656 39.6051C296.897 40.1828 297.238 40.6302 297.678 40.9474C298.123 41.2647 298.647 41.4233 299.248 41.4233C299.65 41.4233 300.015 41.3499 300.342 41.2031C300.673 41.0516 300.95 40.8362 301.173 40.5568C301.4 40.2775 301.558 39.9413 301.648 39.5483H303.715C303.639 40.2538 303.41 40.8835 303.026 41.4375C302.643 41.9915 302.129 42.4271 301.485 42.7443C300.846 43.0616 300.095 43.2202 299.234 43.2202ZM314.161 34.7543L312.236 35.0952C312.156 34.849 312.028 34.6146 311.853 34.392C311.682 34.1695 311.45 33.9872 311.157 33.8452C310.863 33.7031 310.496 33.6321 310.056 33.6321C309.454 33.6321 308.953 33.767 308.55 34.0369C308.148 34.3021 307.946 34.6454 307.946 35.0668C307.946 35.4313 308.081 35.7249 308.351 35.9474C308.621 36.17 309.057 36.3523 309.658 36.4943L311.391 36.892C312.395 37.1241 313.143 37.4815 313.635 37.9645C314.128 38.4474 314.374 39.0748 314.374 39.8466C314.374 40.5 314.185 41.0824 313.806 41.5938C313.432 42.1004 312.908 42.4981 312.236 42.7869C311.569 43.0758 310.794 43.2202 309.914 43.2202C308.692 43.2202 307.695 42.9598 306.924 42.4389C306.152 41.9134 305.678 41.1676 305.503 40.2017L307.556 39.8892C307.684 40.4242 307.946 40.8291 308.344 41.1037C308.742 41.3736 309.26 41.5085 309.9 41.5085C310.596 41.5085 311.152 41.3641 311.569 41.0753C311.985 40.7817 312.194 40.4242 312.194 40.0028C312.194 39.6619 312.066 39.3755 311.81 39.1435C311.559 38.9115 311.173 38.7363 310.652 38.6179L308.806 38.2131C307.788 37.9811 307.035 37.6117 306.547 37.1051C306.064 36.5985 305.823 35.9569 305.823 35.1804C305.823 34.5365 306.003 33.973 306.363 33.4901C306.722 33.0071 307.22 32.6307 307.854 32.3608C308.489 32.0862 309.215 31.9489 310.034 31.9489C311.213 31.9489 312.141 32.2045 312.819 32.7159C313.496 33.2225 313.943 33.902 314.161 34.7543ZM334.253 33.1847H332.037C331.952 32.7112 331.793 32.2945 331.561 31.9347C331.329 31.5748 331.045 31.2694 330.709 31.0185C330.373 30.7675 329.997 30.5781 329.58 30.4503C329.168 30.3224 328.73 30.2585 328.266 30.2585C327.428 30.2585 326.677 30.4692 326.015 30.8906C325.356 31.312 324.836 31.9299 324.452 32.7443C324.073 33.5587 323.884 34.553 323.884 35.7273C323.884 36.911 324.073 37.91 324.452 38.7244C324.836 39.5388 325.359 40.1544 326.022 40.571C326.685 40.9877 327.43 41.196 328.259 41.196C328.718 41.196 329.154 41.1345 329.566 41.0114C329.982 40.8835 330.359 40.6965 330.695 40.4503C331.031 40.2041 331.315 39.9034 331.547 39.5483C331.784 39.1884 331.947 38.7765 332.037 38.3125L334.253 38.3196C334.135 39.0346 333.905 39.6927 333.564 40.294C333.228 40.8906 332.795 41.4067 332.265 41.8423C331.739 42.2732 331.138 42.607 330.461 42.8438C329.783 43.0805 329.045 43.1989 328.245 43.1989C326.985 43.1989 325.863 42.9006 324.878 42.304C323.893 41.7027 323.117 40.8433 322.549 39.7259C321.985 38.6084 321.703 37.2756 321.703 35.7273C321.703 34.1742 321.988 32.8414 322.556 31.7287C323.124 30.6113 323.9 29.7543 324.885 29.1577C325.87 28.5563 326.99 28.2557 328.245 28.2557C329.016 28.2557 329.736 28.367 330.404 28.5895C331.076 28.8073 331.68 29.1293 332.215 29.5554C332.75 29.9768 333.193 30.4929 333.543 31.1037C333.893 31.7098 334.13 32.4034 334.253 33.1847ZM338.832 28.4545V43H336.709V28.4545H338.832ZM346.284 43.2202C345.262 43.2202 344.369 42.9858 343.607 42.517C342.845 42.0483 342.253 41.3925 341.831 40.5497C341.41 39.7069 341.199 38.7221 341.199 37.5952C341.199 36.4635 341.41 35.474 341.831 34.6264C342.253 33.7789 342.845 33.1207 343.607 32.652C344.369 32.1832 345.262 31.9489 346.284 31.9489C347.307 31.9489 348.2 32.1832 348.962 32.652C349.724 33.1207 350.316 33.7789 350.738 34.6264C351.159 35.474 351.37 36.4635 351.37 37.5952C351.37 38.7221 351.159 39.7069 350.738 40.5497C350.316 41.3925 349.724 42.0483 348.962 42.517C348.2 42.9858 347.307 43.2202 346.284 43.2202ZM346.292 41.4375C346.954 41.4375 347.504 41.2623 347.939 40.9119C348.375 40.5616 348.697 40.0952 348.905 39.5128C349.118 38.9304 349.225 38.2888 349.225 37.5881C349.225 36.892 349.118 36.2528 348.905 35.6705C348.697 35.0833 348.375 34.6122 347.939 34.2571C347.504 33.902 346.954 33.7244 346.292 33.7244C345.624 33.7244 345.07 33.902 344.63 34.2571C344.194 34.6122 343.87 35.0833 343.657 35.6705C343.448 36.2528 343.344 36.892 343.344 37.5881C343.344 38.2888 343.448 38.9304 343.657 39.5128C343.87 40.0952 344.194 40.5616 344.63 40.9119C345.07 41.2623 345.624 41.4375 346.292 41.4375ZM360.651 38.4759V32.0909H362.781V43H360.693V41.1108H360.58C360.329 41.6932 359.926 42.1785 359.372 42.5668C358.823 42.9503 358.139 43.142 357.32 43.142C356.619 43.142 355.999 42.9882 355.459 42.6804C354.924 42.3679 354.502 41.9062 354.195 41.2955C353.892 40.6847 353.74 39.9295 353.74 39.0298V32.0909H355.864V38.7741C355.864 39.5175 356.07 40.1094 356.482 40.5497C356.893 40.9901 357.429 41.2102 358.087 41.2102C358.484 41.2102 358.88 41.1108 359.273 40.9119C359.67 40.7131 360 40.4124 360.26 40.0099C360.525 39.6075 360.655 39.0961 360.651 38.4759ZM369.718 43.2131C368.838 43.2131 368.052 42.9882 367.36 42.5384C366.674 42.0838 366.134 41.4375 365.741 40.5994C365.353 39.7566 365.159 38.7457 365.159 37.5668C365.159 36.3878 365.355 35.3793 365.748 34.5412C366.146 33.7031 366.69 33.0616 367.382 32.6165C368.073 32.1714 368.857 31.9489 369.733 31.9489C370.41 31.9489 370.954 32.0625 371.366 32.2898C371.783 32.5123 372.105 32.7727 372.332 33.071C372.564 33.3693 372.744 33.6321 372.872 33.8594H373V28.4545H375.123V43H373.049V41.3026H372.872C372.744 41.5346 372.559 41.7997 372.318 42.098C372.081 42.3963 371.754 42.6567 371.338 42.8793C370.921 43.1018 370.381 43.2131 369.718 43.2131ZM370.187 41.402C370.798 41.402 371.314 41.241 371.735 40.919C372.162 40.5923 372.484 40.1402 372.701 39.5625C372.924 38.9848 373.035 38.3125 373.035 37.5455C373.035 36.7879 372.926 36.125 372.708 35.5568C372.491 34.9886 372.171 34.5459 371.75 34.2287C371.328 33.9115 370.807 33.7528 370.187 33.7528C369.548 33.7528 369.015 33.9186 368.589 34.25C368.163 34.5814 367.841 35.0336 367.623 35.6065C367.41 36.1795 367.304 36.8258 367.304 37.5455C367.304 38.2746 367.413 38.9304 367.63 39.5128C367.848 40.0952 368.17 40.5568 368.596 40.8977C369.027 41.2339 369.557 41.402 370.187 41.402Z" fill="black"/>
<path d="M138.352 67V56.8182H144.259V57.6534H139.282V61.4865H143.945V62.3217H139.282V66.1648H144.358V67H138.352ZM148.614 67.174C148.153 67.174 147.732 67.0845 147.351 66.9055C146.97 66.7232 146.666 66.4614 146.441 66.12C146.216 65.7753 146.103 65.3577 146.103 64.8672C146.103 64.4893 146.174 64.1712 146.317 63.9126C146.459 63.6541 146.661 63.442 146.923 63.2763C147.185 63.1106 147.495 62.9796 147.853 62.8835C148.211 62.7874 148.605 62.7128 149.036 62.6598C149.464 62.6068 149.825 62.5604 150.12 62.5206C150.418 62.4808 150.645 62.4179 150.801 62.3317C150.957 62.2455 151.035 62.1063 151.035 61.9141V61.7351C151.035 61.2147 150.879 60.8054 150.567 60.5071C150.259 60.2055 149.815 60.0547 149.235 60.0547C148.685 60.0547 148.236 60.1757 147.888 60.4176C147.543 60.6596 147.301 60.9446 147.162 61.2727L146.322 60.9695C146.494 60.5518 146.733 60.2187 147.038 59.9702C147.343 59.7183 147.684 59.5376 148.062 59.4283C148.44 59.3156 148.822 59.2592 149.21 59.2592C149.502 59.2592 149.805 59.2973 150.12 59.3736C150.438 59.4498 150.733 59.5824 151.005 59.7713C151.277 59.9569 151.497 60.2171 151.666 60.5518C151.835 60.8833 151.92 61.3042 151.92 61.8146V67H151.035V65.7919H150.98C150.874 66.0173 150.717 66.236 150.508 66.4482C150.299 66.6603 150.037 66.8343 149.722 66.9702C149.407 67.1061 149.038 67.174 148.614 67.174ZM148.733 66.3636C149.204 66.3636 149.611 66.2592 149.956 66.0504C150.301 65.8416 150.566 65.5649 150.751 65.2202C150.94 64.8722 151.035 64.4893 151.035 64.0717V62.968C150.969 63.031 150.857 63.0874 150.702 63.1371C150.549 63.1868 150.372 63.2315 150.17 63.2713C149.971 63.3078 149.772 63.3393 149.573 63.3658C149.374 63.3923 149.195 63.4155 149.036 63.4354C148.605 63.4884 148.237 63.5713 147.933 63.6839C147.628 63.7966 147.394 63.9524 147.232 64.1513C147.069 64.3468 146.988 64.5987 146.988 64.907C146.988 65.371 147.154 65.7306 147.485 65.9858C147.817 66.2377 148.232 66.3636 148.733 66.3636ZM159.404 61.0391L158.594 61.2678C158.515 61.0391 158.402 60.8319 158.256 60.6463C158.11 60.4607 157.92 60.3132 157.684 60.2038C157.452 60.0945 157.164 60.0398 156.819 60.0398C156.302 60.0398 155.878 60.1624 155.547 60.4077C155.215 60.6529 155.049 60.9695 155.049 61.3572C155.049 61.6854 155.162 61.9522 155.387 62.1577C155.616 62.3598 155.967 62.5206 156.441 62.6399L157.595 62.9233C158.234 63.0791 158.713 63.326 159.032 63.6641C159.353 64.0021 159.514 64.4264 159.514 64.9368C159.514 65.3677 159.395 65.7505 159.156 66.0852C158.917 66.42 158.584 66.6835 158.157 66.8757C157.732 67.0646 157.24 67.1591 156.68 67.1591C155.934 67.1591 155.319 66.9917 154.836 66.657C154.352 66.3189 154.042 65.8317 153.906 65.1953L154.756 64.9865C154.865 65.4406 155.079 65.7836 155.397 66.0156C155.719 66.2476 156.141 66.3636 156.665 66.3636C157.252 66.3636 157.721 66.2327 158.072 65.9709C158.423 65.7057 158.599 65.3743 158.599 64.9766C158.599 64.6683 158.496 64.4098 158.291 64.201C158.085 63.9889 157.774 63.8331 157.356 63.7337L156.108 63.4354C155.445 63.2763 154.955 63.0244 154.637 62.6797C154.319 62.335 154.159 61.9074 154.159 61.397C154.159 60.9761 154.274 60.6065 154.502 60.2884C154.731 59.9669 155.046 59.715 155.447 59.5327C155.848 59.3504 156.306 59.2592 156.819 59.2592C157.519 59.2592 158.077 59.4183 158.495 59.7365C158.916 60.0514 159.219 60.4856 159.404 61.0391ZM161.461 67V59.3636H162.351V67H161.461ZM161.914 58.0511C161.732 58.0511 161.576 57.9898 161.447 57.8672C161.317 57.7412 161.253 57.5904 161.253 57.4148C161.253 57.2391 161.317 57.09 161.447 56.9673C161.576 56.8414 161.732 56.7784 161.914 56.7784C162.096 56.7784 162.252 56.8414 162.381 56.9673C162.51 57.09 162.575 57.2391 162.575 57.4148C162.575 57.5904 162.51 57.7412 162.381 57.8672C162.252 57.9898 162.096 58.0511 161.914 58.0511ZM165.577 56.8182V67H164.692V56.8182H165.577ZM168.535 69.8636C168.359 69.8636 168.195 69.8471 168.043 69.8139C167.89 69.7808 167.769 69.7443 167.68 69.7045L167.918 68.924C168.22 69.0168 168.488 69.05 168.724 69.0234C168.959 69.0002 169.168 68.8942 169.35 68.7053C169.532 68.5196 169.695 68.2346 169.837 67.8501L170.116 67.0746L167.307 59.3636H168.266L170.533 65.8317H170.603L172.87 59.3636H173.83L170.598 68.2081C170.462 68.576 170.295 68.8826 170.096 69.1278C169.897 69.3764 169.667 69.5604 169.405 69.6797C169.146 69.8023 168.856 69.8636 168.535 69.8636ZM180.383 56.8182V67H179.498V56.8182H180.383ZM184.858 67.174C184.397 67.174 183.976 67.0845 183.595 66.9055C183.214 66.7232 182.911 66.4614 182.685 66.12C182.46 65.7753 182.347 65.3577 182.347 64.8672C182.347 64.4893 182.418 64.1712 182.561 63.9126C182.703 63.6541 182.906 63.442 183.167 63.2763C183.429 63.1106 183.739 62.9796 184.097 62.8835C184.455 62.7874 184.849 62.7128 185.28 62.6598C185.708 62.6068 186.069 62.5604 186.364 62.5206C186.662 62.4808 186.89 62.4179 187.045 62.3317C187.201 62.2455 187.279 62.1063 187.279 61.9141V61.7351C187.279 61.2147 187.123 60.8054 186.812 60.5071C186.503 60.2055 186.059 60.0547 185.479 60.0547C184.929 60.0547 184.48 60.1757 184.132 60.4176C183.787 60.6596 183.545 60.9446 183.406 61.2727L182.566 60.9695C182.738 60.5518 182.977 60.2187 183.282 59.9702C183.587 59.7183 183.928 59.5376 184.306 59.4283C184.684 59.3156 185.067 59.2592 185.454 59.2592C185.746 59.2592 186.049 59.2973 186.364 59.3736C186.682 59.4498 186.977 59.5824 187.249 59.7713C187.521 59.9569 187.741 60.2171 187.91 60.5518C188.079 60.8833 188.164 61.3042 188.164 61.8146V67H187.279V65.7919H187.224C187.118 66.0173 186.961 66.236 186.752 66.4482C186.543 66.6603 186.281 66.8343 185.966 66.9702C185.652 67.1061 185.282 67.174 184.858 67.174ZM184.977 66.3636C185.448 66.3636 185.855 66.2592 186.2 66.0504C186.545 65.8416 186.81 65.5649 186.996 65.2202C187.184 64.8722 187.279 64.4893 187.279 64.0717V62.968C187.213 63.031 187.102 63.0874 186.946 63.1371C186.793 63.1868 186.616 63.2315 186.414 63.2713C186.215 63.3078 186.016 63.3393 185.817 63.3658C185.618 63.3923 185.439 63.4155 185.28 63.4354C184.849 63.4884 184.482 63.5713 184.177 63.6839C183.872 63.7966 183.638 63.9524 183.476 64.1513C183.313 64.3468 183.232 64.5987 183.232 64.907C183.232 65.371 183.398 65.7306 183.729 65.9858C184.061 66.2377 184.477 66.3636 184.977 66.3636ZM195.37 64.0817V59.3636H196.255V67H195.37V65.7322H195.301C195.122 66.1233 194.838 66.4498 194.45 66.7116C194.063 66.9702 193.589 67.0994 193.029 67.0994C192.541 67.0994 192.109 66.9934 191.731 66.7812C191.353 66.5658 191.057 66.2509 190.841 65.8366C190.626 65.4223 190.518 64.9136 190.518 64.3104V59.3636H191.403V64.2557C191.403 64.8523 191.579 65.3329 191.93 65.6974C192.281 66.0587 192.732 66.2393 193.282 66.2393C193.627 66.2393 193.958 66.1565 194.276 65.9908C194.595 65.825 194.856 65.5831 195.062 65.2649C195.267 64.9434 195.37 64.549 195.37 64.0817ZM199.483 62.2273V67H198.598V59.3636H199.458V60.5618H199.538C199.717 60.1707 199.995 59.8575 200.373 59.6222C200.754 59.3835 201.225 59.2642 201.785 59.2642C202.299 59.2642 202.749 59.3719 203.137 59.5874C203.528 59.7995 203.831 60.1127 204.047 60.527C204.266 60.9413 204.375 61.45 204.375 62.0533V67H203.49V62.108C203.49 61.4815 203.314 60.986 202.963 60.6214C202.615 60.2569 202.148 60.0746 201.561 60.0746C201.16 60.0746 200.804 60.1607 200.492 60.3331C200.181 60.5054 199.934 60.754 199.751 61.0788C199.572 61.4003 199.483 61.7831 199.483 62.2273ZM209.688 67.1591C209.006 67.1591 208.411 66.9884 207.904 66.647C207.4 66.3056 207.009 65.8383 206.73 65.245C206.452 64.6518 206.313 63.9756 206.313 63.2166C206.313 62.451 206.454 61.7699 206.735 61.1733C207.02 60.5767 207.415 60.1094 207.919 59.7713C208.422 59.4299 209.007 59.2592 209.673 59.2592C210.184 59.2592 210.646 59.3587 211.061 59.5575C211.475 59.7531 211.816 60.0298 212.085 60.3878C212.356 60.7424 212.527 61.1567 212.597 61.6307H211.702C211.609 61.1998 211.385 60.8319 211.031 60.527C210.679 60.2187 210.232 60.0646 209.688 60.0646C209.201 60.0646 208.77 60.1972 208.396 60.4624C208.021 60.7242 207.728 61.0904 207.516 61.5611C207.307 62.0284 207.203 62.5703 207.203 63.1868C207.203 63.8066 207.305 64.3551 207.511 64.8324C207.716 65.3063 208.005 65.6776 208.376 65.946C208.75 66.2145 209.188 66.3487 209.688 66.3487C210.026 66.3487 210.335 66.2857 210.613 66.1598C210.895 66.0305 211.13 65.8482 211.319 65.6129C211.511 65.3776 211.641 65.0975 211.707 64.7727H212.602C212.535 65.2334 212.371 65.6444 212.11 66.0057C211.851 66.3636 211.515 66.6454 211.1 66.8509C210.689 67.0563 210.219 67.1591 209.688 67.1591ZM215.383 62.2273V67H214.498V56.8182H215.383V60.5618H215.463C215.642 60.1674 215.919 59.8525 216.293 59.6172C216.671 59.3819 217.148 59.2642 217.725 59.2642C218.242 59.2642 218.696 59.3703 219.087 59.5824C219.478 59.7945 219.783 60.1077 220.002 60.522C220.221 60.9363 220.33 61.4467 220.33 62.0533V67H219.44V62.108C219.44 61.4782 219.265 60.9827 218.913 60.6214C218.565 60.2569 218.095 60.0746 217.501 60.0746C217.094 60.0746 216.731 60.1607 216.412 60.3331C216.094 60.5054 215.842 60.754 215.657 61.0788C215.474 61.4003 215.383 61.7831 215.383 62.2273ZM229.606 59.3636V60.1342H225.962V59.3636H229.606ZM227.1 57.5341H227.99V65.0064C227.99 65.3246 228.045 65.5748 228.154 65.7571C228.263 65.9361 228.406 66.0637 228.582 66.1399C228.757 66.2128 228.945 66.2493 229.143 66.2493C229.259 66.2493 229.359 66.2427 229.442 66.2294C229.525 66.2128 229.598 66.1963 229.661 66.1797L229.849 66.9801C229.763 67.0133 229.657 67.0431 229.531 67.0696C229.405 67.0994 229.25 67.1143 229.064 67.1143C228.739 67.1143 228.426 67.0431 228.124 66.9006C227.826 66.758 227.581 66.5459 227.388 66.2642C227.196 65.9825 227.1 65.6328 227.1 65.2152V57.5341ZM232.665 62.2273V67H231.78V56.8182H232.665V60.5618H232.744C232.923 60.1674 233.2 59.8525 233.574 59.6172C233.952 59.3819 234.43 59.2642 235.006 59.2642C235.523 59.2642 235.977 59.3703 236.368 59.5824C236.76 59.7945 237.064 60.1077 237.283 60.522C237.502 60.9363 237.611 61.4467 237.611 62.0533V67H236.721V62.108C236.721 61.4782 236.546 60.9827 236.194 60.6214C235.846 60.2569 235.376 60.0746 234.782 60.0746C234.375 60.0746 234.012 60.1607 233.694 60.3331C233.376 60.5054 233.124 60.754 232.938 61.0788C232.756 61.4003 232.665 61.7831 232.665 62.2273ZM243.029 67.1591C242.317 67.1591 241.7 66.9934 241.18 66.6619C240.659 66.3272 240.257 65.8648 239.972 65.2749C239.69 64.6816 239.549 63.9988 239.549 63.2266C239.549 62.4576 239.69 61.7749 239.972 61.1783C240.257 60.5784 240.649 60.1094 241.15 59.7713C241.654 59.4299 242.235 59.2592 242.895 59.2592C243.309 59.2592 243.709 59.3355 244.093 59.4879C244.478 59.6371 244.822 59.8674 245.127 60.179C245.435 60.4872 245.679 60.8767 245.858 61.3473C246.037 61.8146 246.126 62.3681 246.126 63.0078V63.4453H240.161V62.6648H245.222C245.222 62.1742 245.122 61.7334 244.923 61.3423C244.728 60.9479 244.454 60.6364 244.103 60.4077C243.755 60.179 243.352 60.0646 242.895 60.0646C242.411 60.0646 241.985 60.1939 241.617 60.4524C241.249 60.7109 240.961 61.0523 240.752 61.4766C240.547 61.9008 240.442 62.3648 240.439 62.8686V63.3359C240.439 63.9425 240.543 64.4728 240.752 64.9268C240.964 65.3776 241.264 65.7273 241.652 65.9759C242.04 66.2244 242.499 66.3487 243.029 66.3487C243.39 66.3487 243.707 66.2924 243.979 66.1797C244.254 66.067 244.484 65.9162 244.67 65.7273C244.859 65.535 245.001 65.3246 245.097 65.0959L245.938 65.3693C245.821 65.6908 245.631 65.9875 245.366 66.2592C245.104 66.531 244.776 66.7498 244.381 66.9155C243.99 67.0779 243.54 67.1591 243.029 67.1591ZM255.101 67.1591C254.389 67.1591 253.772 66.9934 253.252 66.6619C252.732 66.3272 252.329 65.8648 252.044 65.2749C251.762 64.6816 251.621 63.9988 251.621 63.2266C251.621 62.4576 251.762 61.7749 252.044 61.1783C252.329 60.5784 252.722 60.1094 253.222 59.7713C253.726 59.4299 254.308 59.2592 254.967 59.2592C255.381 59.2592 255.781 59.3355 256.165 59.4879C256.55 59.6371 256.894 59.8674 257.199 60.179C257.508 60.4872 257.751 60.8767 257.93 61.3473C258.109 61.8146 258.199 62.3681 258.199 63.0078V63.4453H252.233V62.6648H257.294C257.294 62.1742 257.194 61.7334 256.996 61.3423C256.8 60.9479 256.527 60.6364 256.175 60.4077C255.827 60.179 255.425 60.0646 254.967 60.0646C254.483 60.0646 254.057 60.1939 253.689 60.4524C253.322 60.7109 253.033 61.0523 252.824 61.4766C252.619 61.9008 252.515 62.3648 252.511 62.8686V63.3359C252.511 63.9425 252.616 64.4728 252.824 64.9268C253.037 65.3776 253.336 65.7273 253.724 65.9759C254.112 66.2244 254.571 66.3487 255.101 66.3487C255.463 66.3487 255.779 66.2924 256.051 66.1797C256.326 66.067 256.556 65.9162 256.742 65.7273C256.931 65.535 257.073 65.3246 257.17 65.0959L258.01 65.3693C257.894 65.6908 257.703 65.9875 257.438 66.2592C257.176 66.531 256.848 66.7498 256.454 66.9155C256.063 67.0779 255.612 67.1591 255.101 67.1591ZM262.898 67.1591C262.272 67.1591 261.723 66.9934 261.252 66.6619C260.782 66.3305 260.414 65.8681 260.149 65.2749C259.887 64.6816 259.756 63.9905 259.756 63.2017C259.756 62.4162 259.887 61.7285 260.149 61.1385C260.414 60.5452 260.783 60.0845 261.257 59.7564C261.731 59.425 262.283 59.2592 262.913 59.2592C263.377 59.2592 263.763 59.3421 264.071 59.5078C264.38 59.6702 264.627 59.8724 264.812 60.1143C264.998 60.3563 265.142 60.5916 265.245 60.8203H265.324V56.8182H266.214V67H265.349V65.5831H265.245C265.142 65.8151 264.996 66.0537 264.807 66.299C264.618 66.541 264.368 66.7448 264.056 66.9105C263.748 67.0762 263.362 67.1591 262.898 67.1591ZM263.002 66.3487C263.496 66.3487 263.917 66.2145 264.265 65.946C264.613 65.6742 264.878 65.3014 265.061 64.8274C265.246 64.3501 265.339 63.8033 265.339 63.1868C265.339 62.5769 265.248 62.0384 265.066 61.571C264.883 61.1004 264.618 60.7325 264.27 60.4673C263.922 60.1989 263.5 60.0646 263.002 60.0646C262.492 60.0646 262.061 60.2038 261.71 60.4822C261.362 60.7573 261.097 61.1302 260.914 61.6009C260.735 62.0715 260.646 62.6001 260.646 63.1868C260.646 63.7801 260.737 64.3153 260.919 64.7926C261.102 65.2699 261.367 65.6494 261.715 65.9311C262.066 66.2095 262.495 66.3487 263.002 66.3487ZM268.745 67V59.3636H269.635V67H268.745ZM269.197 58.0511C269.015 58.0511 268.859 57.9898 268.73 57.8672C268.6 57.7412 268.536 57.5904 268.536 57.4148C268.536 57.2391 268.6 57.09 268.73 56.9673C268.859 56.8414 269.015 56.7784 269.197 56.7784C269.379 56.7784 269.535 56.8414 269.664 56.9673C269.794 57.09 269.858 57.2391 269.858 57.4148C269.858 57.5904 269.794 57.7412 269.664 57.8672C269.535 57.9898 269.379 58.0511 269.197 58.0511ZM274.983 59.3636V60.1342H271.339V59.3636H274.983ZM272.477 57.5341H273.367V65.0064C273.367 65.3246 273.422 65.5748 273.531 65.7571C273.64 65.9361 273.783 66.0637 273.959 66.1399C274.134 66.2128 274.322 66.2493 274.52 66.2493C274.636 66.2493 274.736 66.2427 274.819 66.2294C274.902 66.2128 274.974 66.1963 275.037 66.1797L275.226 66.9801C275.14 67.0133 275.034 67.0431 274.908 67.0696C274.782 67.0994 274.626 67.1143 274.441 67.1143C274.116 67.1143 273.803 67.0431 273.501 66.9006C273.203 66.758 272.958 66.5459 272.765 66.2642C272.573 65.9825 272.477 65.6328 272.477 65.2152V57.5341ZM279.879 67.1591C279.219 67.1591 278.636 66.9917 278.129 66.657C277.625 66.3222 277.23 65.8598 276.945 65.2699C276.66 64.6766 276.518 63.9922 276.518 63.2166C276.518 62.4344 276.66 61.7467 276.945 61.1534C277.23 60.5568 277.625 60.0928 278.129 59.7614C278.636 59.4266 279.219 59.2592 279.879 59.2592C280.538 59.2592 281.12 59.4266 281.624 59.7614C282.127 60.0961 282.522 60.5601 282.807 61.1534C283.095 61.7467 283.239 62.4344 283.239 63.2166C283.239 63.9922 283.097 64.6766 282.812 65.2699C282.527 65.8598 282.131 66.3222 281.624 66.657C281.12 66.9917 280.538 67.1591 279.879 67.1591ZM279.879 66.3487C280.409 66.3487 280.858 66.2062 281.226 65.9212C281.594 65.6361 281.872 65.2566 282.061 64.7827C282.253 64.3087 282.349 63.7867 282.349 63.2166C282.349 62.6465 282.253 62.1229 282.061 61.6456C281.872 61.1683 281.594 60.7855 281.226 60.4972C280.858 60.2088 280.409 60.0646 279.879 60.0646C279.352 60.0646 278.902 60.2088 278.531 60.4972C278.163 60.7855 277.883 61.1683 277.691 61.6456C277.502 62.1229 277.408 62.6465 277.408 63.2166C277.408 63.7867 277.502 64.3087 277.691 64.7827C277.883 65.2566 278.163 65.6361 278.531 65.9212C278.899 66.2062 279.348 66.3487 279.879 66.3487ZM285.182 67V59.3636H286.042V60.5369H286.107C286.259 60.1525 286.524 59.8426 286.902 59.6072C287.283 59.3686 287.714 59.2493 288.195 59.2493C288.268 59.2493 288.349 59.2509 288.438 59.2543C288.528 59.2576 288.602 59.2609 288.662 59.2642V60.1641C288.622 60.1574 288.553 60.1475 288.453 60.1342C288.354 60.121 288.246 60.1143 288.13 60.1143C287.732 60.1143 287.378 60.1989 287.066 60.3679C286.758 60.5336 286.514 60.764 286.335 61.0589C286.156 61.3539 286.067 61.6903 286.067 62.0682V67H285.182ZM295.303 61.0391L294.493 61.2678C294.413 61.0391 294.3 60.8319 294.154 60.6463C294.009 60.4607 293.818 60.3132 293.583 60.2038C293.351 60.0945 293.062 60.0398 292.718 60.0398C292.201 60.0398 291.776 60.1624 291.445 60.4077C291.114 60.6529 290.948 60.9695 290.948 61.3572C290.948 61.6854 291.06 61.9522 291.286 62.1577C291.515 62.3598 291.866 62.5206 292.34 62.6399L293.493 62.9233C294.133 63.0791 294.612 63.326 294.93 63.6641C295.252 64.0021 295.412 64.4264 295.412 64.9368C295.412 65.3677 295.293 65.7505 295.054 66.0852C294.816 66.42 294.483 66.6835 294.055 66.8757C293.631 67.0646 293.139 67.1591 292.578 67.1591C291.833 67.1591 291.218 66.9917 290.734 66.657C290.25 66.3189 289.94 65.8317 289.804 65.1953L290.654 64.9865C290.764 65.4406 290.978 65.7836 291.296 66.0156C291.617 66.2476 292.04 66.3636 292.564 66.3636C293.15 66.3636 293.619 66.2327 293.971 65.9709C294.322 65.7057 294.498 65.3743 294.498 64.9766C294.498 64.6683 294.395 64.4098 294.189 64.201C293.984 63.9889 293.672 63.8331 293.255 63.7337L292.007 63.4354C291.344 63.2763 290.853 63.0244 290.535 62.6797C290.217 62.335 290.058 61.9074 290.058 61.397C290.058 60.9761 290.172 60.6065 290.401 60.2884C290.63 59.9669 290.944 59.715 291.346 59.5327C291.747 59.3504 292.204 59.2592 292.718 59.2592C293.417 59.2592 293.975 59.4183 294.393 59.7365C294.814 60.0514 295.117 60.4856 295.303 61.0391ZM301.297 67V59.3636H302.187V67H301.297ZM301.75 58.0511C301.568 58.0511 301.412 57.9898 301.282 57.8672C301.153 57.7412 301.089 57.5904 301.089 57.4148C301.089 57.2391 301.153 57.09 301.282 56.9673C301.412 56.8414 301.568 56.7784 301.75 56.7784C301.932 56.7784 302.088 56.8414 302.217 56.9673C302.346 57.09 302.411 57.2391 302.411 57.4148C302.411 57.5904 302.346 57.7412 302.217 57.8672C302.088 57.9898 301.932 58.0511 301.75 58.0511ZM305.413 62.2273V67H304.528V59.3636H305.388V60.5618H305.467C305.646 60.1707 305.925 59.8575 306.303 59.6222C306.684 59.3835 307.154 59.2642 307.714 59.2642C308.228 59.2642 308.679 59.3719 309.067 59.5874C309.458 59.7995 309.761 60.1127 309.977 60.527C310.195 60.9413 310.305 61.45 310.305 62.0533V67H309.42V62.108C309.42 61.4815 309.244 60.986 308.893 60.6214C308.545 60.2569 308.077 60.0746 307.491 60.0746C307.09 60.0746 306.733 60.1607 306.422 60.3331C306.11 60.5054 305.863 60.754 305.681 61.0788C305.502 61.4003 305.413 61.7831 305.413 62.2273ZM319.58 59.3636V60.1342H315.936V59.3636H319.58ZM317.075 57.5341H317.965V65.0064C317.965 65.3246 318.019 65.5748 318.129 65.7571C318.238 65.9361 318.381 66.0637 318.556 66.1399C318.732 66.2128 318.919 66.2493 319.118 66.2493C319.234 66.2493 319.334 66.2427 319.416 66.2294C319.499 66.2128 319.572 66.1963 319.635 66.1797L319.824 66.9801C319.738 67.0133 319.632 67.0431 319.506 67.0696C319.38 67.0994 319.224 67.1143 319.039 67.1143C318.714 67.1143 318.401 67.0431 318.099 66.9006C317.801 66.758 317.555 66.5459 317.363 66.2642C317.171 65.9825 317.075 65.6328 317.075 65.2152V57.5341ZM322.639 62.2273V67H321.754V56.8182H322.639V60.5618H322.719C322.898 60.1674 323.174 59.8525 323.549 59.6172C323.927 59.3819 324.404 59.2642 324.981 59.2642C325.498 59.2642 325.952 59.3703 326.343 59.5824C326.734 59.7945 327.039 60.1077 327.258 60.522C327.477 60.9363 327.586 61.4467 327.586 62.0533V67H326.696V62.108C326.696 61.4782 326.52 60.9827 326.169 60.6214C325.821 60.2569 325.35 60.0746 324.757 60.0746C324.349 60.0746 323.987 60.1607 323.668 60.3331C323.35 60.5054 323.098 60.754 322.913 61.0788C322.73 61.4003 322.639 61.7831 322.639 62.2273ZM333.004 67.1591C332.291 67.1591 331.675 66.9934 331.154 66.6619C330.634 66.3272 330.231 65.8648 329.946 65.2749C329.664 64.6816 329.524 63.9988 329.524 63.2266C329.524 62.4576 329.664 61.7749 329.946 61.1783C330.231 60.5784 330.624 60.1094 331.124 59.7713C331.628 59.4299 332.21 59.2592 332.869 59.2592C333.284 59.2592 333.683 59.3355 334.068 59.4879C334.452 59.6371 334.797 59.8674 335.102 60.179C335.41 60.4872 335.654 60.8767 335.833 61.3473C336.012 61.8146 336.101 62.3681 336.101 63.0078V63.4453H330.135V62.6648H335.196C335.196 62.1742 335.097 61.7334 334.898 61.3423C334.702 60.9479 334.429 60.6364 334.078 60.4077C333.73 60.179 333.327 60.0646 332.869 60.0646C332.386 60.0646 331.96 60.1939 331.592 60.4524C331.224 60.7109 330.936 61.0523 330.727 61.4766C330.521 61.9008 330.417 62.3648 330.414 62.8686V63.3359C330.414 63.9425 330.518 64.4728 330.727 64.9268C330.939 65.3776 331.239 65.7273 331.627 65.9759C332.014 66.2244 332.473 66.3487 333.004 66.3487C333.365 66.3487 333.682 66.2924 333.953 66.1797C334.228 66.067 334.459 65.9162 334.644 65.7273C334.833 65.535 334.976 65.3246 335.072 65.0959L335.912 65.3693C335.796 65.6908 335.606 65.9875 335.34 66.2592C335.079 66.531 334.75 66.7498 334.356 66.9155C333.965 67.0779 333.514 67.1591 333.004 67.1591ZM344.972 67.1591C344.289 67.1591 343.694 66.9884 343.187 66.647C342.683 66.3056 342.292 65.8383 342.013 65.245C341.735 64.6518 341.596 63.9756 341.596 63.2166C341.596 62.451 341.737 61.7699 342.018 61.1733C342.304 60.5767 342.698 60.1094 343.202 59.7713C343.705 59.4299 344.29 59.2592 344.957 59.2592C345.467 59.2592 345.929 59.3587 346.344 59.5575C346.758 59.7531 347.099 60.0298 347.368 60.3878C347.64 60.7424 347.81 61.1567 347.88 61.6307H346.985C346.892 61.1998 346.669 60.8319 346.314 60.527C345.963 60.2187 345.515 60.0646 344.972 60.0646C344.484 60.0646 344.054 60.1972 343.679 60.4624C343.304 60.7242 343.011 61.0904 342.799 61.5611C342.59 62.0284 342.486 62.5703 342.486 63.1868C342.486 63.8066 342.589 64.3551 342.794 64.8324C343 65.3063 343.288 65.6776 343.659 65.946C344.034 66.2145 344.471 66.3487 344.972 66.3487C345.31 66.3487 345.618 66.2857 345.896 66.1598C346.178 66.0305 346.413 65.8482 346.602 65.6129C346.795 65.3776 346.924 65.0975 346.99 64.7727H347.885C347.819 65.2334 347.655 65.6444 347.393 66.0057C347.134 66.3636 346.798 66.6454 346.384 66.8509C345.973 67.0563 345.502 67.1591 344.972 67.1591ZM350.667 56.8182V67H349.782V56.8182H350.667ZM355.976 67.1591C355.317 67.1591 354.733 66.9917 354.226 66.657C353.722 66.3222 353.328 65.8598 353.043 65.2699C352.758 64.6766 352.615 63.9922 352.615 63.2166C352.615 62.4344 352.758 61.7467 353.043 61.1534C353.328 60.5568 353.722 60.0928 354.226 59.7614C354.733 59.4266 355.317 59.2592 355.976 59.2592C356.636 59.2592 357.217 59.4266 357.721 59.7614C358.225 60.0961 358.619 60.5601 358.904 61.1534C359.193 61.7467 359.337 62.4344 359.337 63.2166C359.337 63.9922 359.194 64.6766 358.909 65.2699C358.624 65.8598 358.228 66.3222 357.721 66.657C357.217 66.9917 356.636 67.1591 355.976 67.1591ZM355.976 66.3487C356.507 66.3487 356.956 66.2062 357.324 65.9212C357.691 65.6361 357.97 65.2566 358.159 64.7827C358.351 64.3087 358.447 63.7867 358.447 63.2166C358.447 62.6465 358.351 62.1229 358.159 61.6456C357.97 61.1683 357.691 60.7855 357.324 60.4972C356.956 60.2088 356.507 60.0646 355.976 60.0646C355.449 60.0646 355 60.2088 354.629 60.4972C354.261 60.7855 353.981 61.1683 353.789 61.6456C353.6 62.1229 353.505 62.6465 353.505 63.2166C353.505 63.7867 353.6 64.3087 353.789 64.7827C353.981 65.2566 354.261 65.6361 354.629 65.9212C354.997 66.2062 355.446 66.3487 355.976 66.3487ZM366.132 64.0817V59.3636H367.017V67H366.132V65.7322H366.062C365.883 66.1233 365.6 66.4498 365.212 66.7116C364.824 66.9702 364.35 67.0994 363.79 67.0994C363.303 67.0994 362.871 66.9934 362.493 66.7812C362.115 66.5658 361.818 66.2509 361.603 65.8366C361.387 65.4223 361.28 64.9136 361.28 64.3104V59.3636H362.165V64.2557C362.165 64.8523 362.34 65.3329 362.692 65.6974C363.043 66.0587 363.494 66.2393 364.044 66.2393C364.389 66.2393 364.72 66.1565 365.038 65.9908C365.356 65.825 365.618 65.5831 365.824 65.2649C366.029 64.9434 366.132 64.549 366.132 64.0817ZM372.109 67.1591C371.483 67.1591 370.934 66.9934 370.463 66.6619C369.993 66.3305 369.625 65.8681 369.36 65.2749C369.098 64.6816 368.967 63.9905 368.967 63.2017C368.967 62.4162 369.098 61.7285 369.36 61.1385C369.625 60.5452 369.994 60.0845 370.468 59.7564C370.942 59.425 371.494 59.2592 372.124 59.2592C372.588 59.2592 372.974 59.3421 373.282 59.5078C373.591 59.6702 373.837 59.8724 374.023 60.1143C374.209 60.3563 374.353 60.5916 374.456 60.8203H374.535V56.8182H375.425V67H374.56V65.5831H374.456C374.353 65.8151 374.207 66.0537 374.018 66.299C373.829 66.541 373.579 66.7448 373.267 66.9105C372.959 67.0762 372.573 67.1591 372.109 67.1591ZM372.213 66.3487C372.707 66.3487 373.128 66.2145 373.476 65.946C373.824 65.6742 374.089 65.3014 374.272 64.8274C374.457 64.3501 374.55 63.8033 374.55 63.1868C374.55 62.5769 374.459 62.0384 374.277 61.571C374.094 61.1004 373.829 60.7325 373.481 60.4673C373.133 60.1989 372.711 60.0646 372.213 60.0646C371.703 60.0646 371.272 60.2038 370.921 60.4822C370.573 60.7573 370.308 61.1302 370.125 61.6009C369.946 62.0715 369.857 62.6001 369.857 63.1868C369.857 63.7801 369.948 64.3153 370.13 64.7926C370.313 65.2699 370.578 65.6494 370.926 65.9311C371.277 66.2095 371.706 66.3487 372.213 66.3487ZM139.864 84L137.557 76.3636H138.491L140.301 82.6626H140.366L142.17 76.3636H143.11L144.9 82.6477H144.969L146.779 76.3636H147.714L145.407 84H144.492L142.683 77.7408H142.588L140.778 84H139.864ZM149.444 84V76.3636H150.334V84H149.444ZM149.896 75.0511C149.714 75.0511 149.558 74.9898 149.429 74.8672C149.3 74.7412 149.235 74.5904 149.235 74.4148C149.235 74.2391 149.3 74.09 149.429 73.9673C149.558 73.8414 149.714 73.7784 149.896 73.7784C150.079 73.7784 150.234 73.8414 150.364 73.9673C150.493 74.09 150.558 74.2391 150.558 74.4148C150.558 74.5904 150.493 74.7412 150.364 74.8672C150.234 74.9898 150.079 75.0511 149.896 75.0511ZM155.682 76.3636V77.1342H152.038V76.3636H155.682ZM153.176 74.5341H154.066V82.0064C154.066 82.3246 154.121 82.5748 154.23 82.7571C154.34 82.9361 154.482 83.0637 154.658 83.1399C154.834 83.2128 155.021 83.2493 155.22 83.2493C155.336 83.2493 155.435 83.2427 155.518 83.2294C155.601 83.2128 155.674 83.1963 155.737 83.1797L155.926 83.9801C155.839 84.0133 155.733 84.0431 155.607 84.0696C155.481 84.0994 155.326 84.1143 155.14 84.1143C154.815 84.1143 154.502 84.0431 154.2 83.9006C153.902 83.758 153.657 83.5459 153.465 83.2642C153.272 82.9825 153.176 82.6328 153.176 82.2152V74.5341ZM158.741 79.2273V84H157.856V73.8182H158.741V77.5618H158.82C158.999 77.1674 159.276 76.8525 159.651 76.6172C160.028 76.3819 160.506 76.2642 161.082 76.2642C161.599 76.2642 162.054 76.3703 162.445 76.5824C162.836 76.7945 163.141 77.1077 163.359 77.522C163.578 77.9363 163.688 78.4467 163.688 79.0533V84H162.798V79.108C162.798 78.4782 162.622 77.9827 162.271 77.6214C161.923 77.2569 161.452 77.0746 160.859 77.0746C160.451 77.0746 160.088 77.1607 159.77 77.3331C159.452 77.5054 159.2 77.754 159.014 78.0788C158.832 78.4003 158.741 78.7831 158.741 79.2273ZM168.986 84.1591C168.326 84.1591 167.743 83.9917 167.236 83.657C166.732 83.3222 166.338 82.8598 166.053 82.2699C165.768 81.6766 165.625 80.9922 165.625 80.2166C165.625 79.4344 165.768 78.7467 166.053 78.1534C166.338 77.5568 166.732 77.0928 167.236 76.7614C167.743 76.4266 168.326 76.2592 168.986 76.2592C169.646 76.2592 170.227 76.4266 170.731 76.7614C171.235 77.0961 171.629 77.5601 171.914 78.1534C172.203 78.7467 172.347 79.4344 172.347 80.2166C172.347 80.9922 172.204 81.6766 171.919 82.2699C171.634 82.8598 171.238 83.3222 170.731 83.657C170.227 83.9917 169.646 84.1591 168.986 84.1591ZM168.986 83.3487C169.516 83.3487 169.965 83.2062 170.333 82.9212C170.701 82.6361 170.98 82.2566 171.169 81.7827C171.361 81.3087 171.457 80.7867 171.457 80.2166C171.457 79.6465 171.361 79.1229 171.169 78.6456C170.98 78.1683 170.701 77.7855 170.333 77.4972C169.965 77.2088 169.516 77.0646 168.986 77.0646C168.459 77.0646 168.01 77.2088 167.639 77.4972C167.271 77.7855 166.991 78.1683 166.798 78.6456C166.61 79.1229 166.515 79.6465 166.515 80.2166C166.515 80.7867 166.61 81.3087 166.798 81.7827C166.991 82.2566 167.271 82.6361 167.639 82.9212C168.007 83.2062 168.456 83.3487 168.986 83.3487ZM179.142 81.0817V76.3636H180.027V84H179.142V82.7322H179.072C178.893 83.1233 178.61 83.4498 178.222 83.7116C177.834 83.9702 177.36 84.0994 176.8 84.0994C176.313 84.0994 175.88 83.9934 175.502 83.7812C175.125 83.5658 174.828 83.2509 174.613 82.8366C174.397 82.4223 174.289 81.9136 174.289 81.3104V76.3636H175.174V81.2557C175.174 81.8523 175.35 82.3329 175.701 82.6974C176.053 83.0587 176.503 83.2393 177.054 83.2393C177.398 83.2393 177.73 83.1565 178.048 82.9908C178.366 82.825 178.628 82.5831 178.833 82.2649C179.039 81.9434 179.142 81.549 179.142 81.0817ZM185.377 76.3636V77.1342H181.733V76.3636H185.377ZM182.872 74.5341H183.762V82.0064C183.762 82.3246 183.816 82.5748 183.926 82.7571C184.035 82.9361 184.177 83.0637 184.353 83.1399C184.529 83.2128 184.716 83.2493 184.915 83.2493C185.031 83.2493 185.13 83.2427 185.213 83.2294C185.296 83.2128 185.369 83.1963 185.432 83.1797L185.621 83.9801C185.535 84.0133 185.429 84.0431 185.303 84.0696C185.177 84.0994 185.021 84.1143 184.835 84.1143C184.511 84.1143 184.197 84.0431 183.896 83.9006C183.597 83.758 183.352 83.5459 183.16 83.2642C182.968 82.9825 182.872 82.6328 182.872 82.2152V74.5341ZM194.074 84.1591C193.447 84.1591 192.899 83.9934 192.428 83.6619C191.958 83.3305 191.59 82.8681 191.325 82.2749C191.063 81.6816 190.932 80.9905 190.932 80.2017C190.932 79.4162 191.063 78.7285 191.325 78.1385C191.59 77.5452 191.959 77.0845 192.433 76.7564C192.907 76.425 193.459 76.2592 194.089 76.2592C194.553 76.2592 194.939 76.3421 195.247 76.5078C195.555 76.6702 195.802 76.8724 195.988 77.1143C196.174 77.3563 196.318 77.5916 196.42 77.8203H196.5V73.8182H197.39V84H196.525V82.5831H196.42C196.318 82.8151 196.172 83.0537 195.983 83.299C195.794 83.541 195.544 83.7448 195.232 83.9105C194.924 84.0762 194.538 84.1591 194.074 84.1591ZM194.178 83.3487C194.672 83.3487 195.093 83.2145 195.441 82.946C195.789 82.6742 196.054 82.3014 196.237 81.8274C196.422 81.3501 196.515 80.8033 196.515 80.1868C196.515 79.5769 196.424 79.0384 196.241 78.571C196.059 78.1004 195.794 77.7325 195.446 77.4673C195.098 77.1989 194.675 77.0646 194.178 77.0646C193.668 77.0646 193.237 77.2038 192.886 77.4822C192.538 77.7573 192.272 78.1302 192.09 78.6009C191.911 79.0715 191.822 79.6001 191.822 80.1868C191.822 80.7801 191.913 81.3153 192.095 81.7926C192.277 82.2699 192.543 82.6494 192.891 82.9311C193.242 83.2095 193.671 83.3487 194.178 83.3487ZM202.879 84.1591C202.219 84.1591 201.636 83.9917 201.129 83.657C200.625 83.3222 200.23 82.8598 199.945 82.2699C199.66 81.6766 199.518 80.9922 199.518 80.2166C199.518 79.4344 199.66 78.7467 199.945 78.1534C200.23 77.5568 200.625 77.0928 201.129 76.7614C201.636 76.4266 202.219 76.2592 202.879 76.2592C203.538 76.2592 204.12 76.4266 204.624 76.7614C205.127 77.0961 205.522 77.5601 205.807 78.1534C206.095 78.7467 206.239 79.4344 206.239 80.2166C206.239 80.9922 206.097 81.6766 205.812 82.2699C205.527 82.8598 205.131 83.3222 204.624 83.657C204.12 83.9917 203.538 84.1591 202.879 84.1591ZM202.879 83.3487C203.409 83.3487 203.858 83.2062 204.226 82.9212C204.594 82.6361 204.872 82.2566 205.061 81.7827C205.253 81.3087 205.349 80.7867 205.349 80.2166C205.349 79.6465 205.253 79.1229 205.061 78.6456C204.872 78.1683 204.594 77.7855 204.226 77.4972C203.858 77.2088 203.409 77.0646 202.879 77.0646C202.352 77.0646 201.902 77.2088 201.531 77.4972C201.163 77.7855 200.883 78.1683 200.691 78.6456C200.502 79.1229 200.408 79.6465 200.408 80.2166C200.408 80.7867 200.502 81.3087 200.691 81.7827C200.883 82.2566 201.163 82.6361 201.531 82.9212C201.899 83.2062 202.348 83.3487 202.879 83.3487ZM209.618 84L207.311 76.3636H208.245L210.055 82.6626H210.12L211.924 76.3636H212.864L214.654 82.6477H214.723L216.533 76.3636H217.468L215.161 84H214.246L212.436 77.7408H212.342L210.532 84H209.618ZM220.073 79.2273V84H219.188V76.3636H220.048V77.5618H220.127C220.306 77.1707 220.585 76.8575 220.963 76.6222C221.344 76.3835 221.815 76.2642 222.375 76.2642C222.888 76.2642 223.339 76.3719 223.727 76.5874C224.118 76.7995 224.421 77.1127 224.637 77.527C224.855 77.9413 224.965 78.45 224.965 79.0533V84H224.08V79.108C224.08 78.4815 223.904 77.986 223.553 77.6214C223.205 77.2569 222.738 77.0746 222.151 77.0746C221.75 77.0746 221.394 77.1607 221.082 77.3331C220.77 77.5054 220.524 77.754 220.341 78.0788C220.162 78.4003 220.073 78.7831 220.073 79.2273ZM228.18 73.8182V84H227.295V73.8182H228.18ZM233.49 84.1591C232.83 84.1591 232.247 83.9917 231.74 83.657C231.236 83.3222 230.842 82.8598 230.557 82.2699C230.272 81.6766 230.129 80.9922 230.129 80.2166C230.129 79.4344 230.272 78.7467 230.557 78.1534C230.842 77.5568 231.236 77.0928 231.74 76.7614C232.247 76.4266 232.83 76.2592 233.49 76.2592C234.149 76.2592 234.731 76.4266 235.235 76.7614C235.739 77.0961 236.133 77.5601 236.418 78.1534C236.706 78.7467 236.851 79.4344 236.851 80.2166C236.851 80.9922 236.708 81.6766 236.423 82.2699C236.138 82.8598 235.742 83.3222 235.235 83.657C234.731 83.9917 234.149 84.1591 233.49 84.1591ZM233.49 83.3487C234.02 83.3487 234.469 83.2062 234.837 82.9212C235.205 82.6361 235.483 82.2566 235.672 81.7827C235.865 81.3087 235.961 80.7867 235.961 80.2166C235.961 79.6465 235.865 79.1229 235.672 78.6456C235.483 78.1683 235.205 77.7855 234.837 77.4972C234.469 77.2088 234.02 77.0646 233.49 77.0646C232.963 77.0646 232.514 77.2088 232.143 77.4972C231.775 77.7855 231.495 78.1683 231.302 78.6456C231.113 79.1229 231.019 79.6465 231.019 80.2166C231.019 80.7867 231.113 81.3087 231.302 81.7827C231.495 82.2566 231.775 82.6361 232.143 82.9212C232.51 83.2062 232.96 83.3487 233.49 83.3487ZM240.926 84.174C240.465 84.174 240.045 84.0845 239.663 83.9055C239.282 83.7232 238.979 83.4614 238.754 83.12C238.528 82.7753 238.415 82.3577 238.415 81.8672C238.415 81.4893 238.487 81.1712 238.629 80.9126C238.772 80.6541 238.974 80.442 239.236 80.2763C239.498 80.1106 239.808 79.9796 240.165 79.8835C240.523 79.7874 240.918 79.7128 241.349 79.6598C241.776 79.6068 242.138 79.5604 242.433 79.5206C242.731 79.4808 242.958 79.4179 243.114 79.3317C243.269 79.2455 243.347 79.1063 243.347 78.9141V78.7351C243.347 78.2147 243.192 77.8054 242.88 77.5071C242.572 77.2055 242.128 77.0547 241.548 77.0547C240.997 77.0547 240.548 77.1757 240.2 77.4176C239.856 77.6596 239.614 77.9446 239.474 78.2727L238.634 77.9695C238.807 77.5518 239.045 77.2187 239.35 76.9702C239.655 76.7183 239.996 76.5376 240.374 76.4283C240.752 76.3156 241.135 76.2592 241.523 76.2592C241.814 76.2592 242.118 76.2973 242.433 76.3736C242.751 76.4498 243.046 76.5824 243.317 76.7713C243.589 76.9569 243.81 77.2171 243.979 77.5518C244.148 77.8833 244.232 78.3042 244.232 78.8146V84H243.347V82.7919H243.293C243.187 83.0173 243.029 83.236 242.82 83.4482C242.612 83.6603 242.35 83.8343 242.035 83.9702C241.72 84.1061 241.35 84.174 240.926 84.174ZM241.045 83.3636C241.516 83.3636 241.924 83.2592 242.268 83.0504C242.613 82.8416 242.878 82.5649 243.064 82.2202C243.253 81.8722 243.347 81.4893 243.347 81.0717V79.968C243.281 80.031 243.17 80.0874 243.014 80.1371C242.862 80.1868 242.684 80.2315 242.482 80.2713C242.283 80.3078 242.085 80.3393 241.886 80.3658C241.687 80.3923 241.508 80.4155 241.349 80.4354C240.918 80.4884 240.55 80.5713 240.245 80.6839C239.94 80.7966 239.706 80.9524 239.544 81.1513C239.382 81.3468 239.3 81.5987 239.3 81.907C239.3 82.371 239.466 82.7306 239.798 82.9858C240.129 83.2377 240.545 83.3636 241.045 83.3636ZM249.336 84.1591C248.709 84.1591 248.161 83.9934 247.69 83.6619C247.219 83.3305 246.851 82.8681 246.586 82.2749C246.324 81.6816 246.194 80.9905 246.194 80.2017C246.194 79.4162 246.324 78.7285 246.586 78.1385C246.851 77.5452 247.221 77.0845 247.695 76.7564C248.169 76.425 248.721 76.2592 249.35 76.2592C249.815 76.2592 250.201 76.3421 250.509 76.5078C250.817 76.6702 251.064 76.8724 251.25 77.1143C251.435 77.3563 251.579 77.5916 251.682 77.8203H251.762V73.8182H252.652V84H251.787V82.5831H251.682C251.579 82.8151 251.434 83.0537 251.245 83.299C251.056 83.541 250.806 83.7448 250.494 83.9105C250.186 84.0762 249.8 84.1591 249.336 84.1591ZM249.44 83.3487C249.934 83.3487 250.355 83.2145 250.703 82.946C251.051 82.6742 251.316 82.3014 251.498 81.8274C251.684 81.3501 251.777 80.8033 251.777 80.1868C251.777 79.5769 251.685 79.0384 251.503 78.571C251.321 78.1004 251.056 77.7325 250.708 77.4673C250.36 77.1989 249.937 77.0646 249.44 77.0646C248.93 77.0646 248.499 77.2038 248.147 77.4822C247.799 77.7573 247.534 78.1302 247.352 78.6009C247.173 79.0715 247.083 79.6001 247.083 80.1868C247.083 80.7801 247.175 81.3153 247.357 81.7926C247.539 82.2699 247.804 82.6494 248.152 82.9311C248.504 83.2095 248.933 83.3487 249.44 83.3487ZM255.182 84V76.3636H256.072V84H255.182ZM255.635 75.0511C255.452 75.0511 255.297 74.9898 255.167 74.8672C255.038 74.7412 254.973 74.5904 254.973 74.4148C254.973 74.2391 255.038 74.09 255.167 73.9673C255.297 73.8414 255.452 73.7784 255.635 73.7784C255.817 73.7784 255.973 73.8414 256.102 73.9673C256.231 74.09 256.296 74.2391 256.296 74.4148C256.296 74.5904 256.231 74.7412 256.102 74.8672C255.973 74.9898 255.817 75.0511 255.635 75.0511ZM259.297 79.2273V84H258.412V76.3636H259.273V77.5618H259.352C259.531 77.1707 259.809 76.8575 260.187 76.6222C260.568 76.3835 261.039 76.2642 261.599 76.2642C262.113 76.2642 262.564 76.3719 262.952 76.5874C263.343 76.7995 263.646 77.1127 263.861 77.527C264.08 77.9413 264.189 78.45 264.189 79.0533V84H263.305V79.108C263.305 78.4815 263.129 77.986 262.778 77.6214C262.43 77.2569 261.962 77.0746 261.376 77.0746C260.974 77.0746 260.618 77.1607 260.307 77.3331C259.995 77.5054 259.748 77.754 259.566 78.0788C259.387 78.4003 259.297 78.7831 259.297 79.2273ZM269.433 87.0227C268.913 87.0227 268.457 86.9548 268.066 86.8189C267.675 86.6863 267.345 86.504 267.077 86.272C266.808 86.04 266.599 85.7798 266.45 85.4915L267.176 85.0142C267.286 85.2064 267.431 85.3954 267.614 85.581C267.799 85.7666 268.04 85.9207 268.335 86.0433C268.633 86.166 268.999 86.2273 269.433 86.2273C270.109 86.2273 270.655 86.0582 271.069 85.7202C271.487 85.3821 271.695 84.8568 271.695 84.1442V82.424H271.616C271.513 82.656 271.366 82.888 271.173 83.12C270.981 83.3487 270.729 83.5393 270.418 83.6918C270.109 83.8442 269.727 83.9205 269.269 83.9205C268.659 83.9205 268.117 83.7696 267.643 83.468C267.173 83.1664 266.802 82.7356 266.53 82.1754C266.261 81.612 266.127 80.9408 266.127 80.1619C266.127 79.3897 266.258 78.7102 266.52 78.1236C266.785 77.5369 267.155 77.0795 267.629 76.7514C268.103 76.4233 268.654 76.2592 269.284 76.2592C269.751 76.2592 270.139 76.3421 270.447 76.5078C270.756 76.6702 271.003 76.8724 271.188 77.1143C271.377 77.3563 271.525 77.5916 271.631 77.8203H271.72V76.3636H272.585V84.1989C272.585 84.8452 272.448 85.3771 272.173 85.7947C271.897 86.2124 271.523 86.5206 271.049 86.7195C270.575 86.9216 270.036 87.0227 269.433 87.0227ZM269.374 83.1101C269.864 83.1101 270.283 82.9924 270.631 82.7571C270.979 82.5185 271.246 82.1771 271.432 81.733C271.617 81.2888 271.71 80.7602 271.71 80.147C271.71 79.5504 271.619 79.0218 271.437 78.5611C271.254 78.0971 270.989 77.7325 270.641 77.4673C270.297 77.1989 269.874 77.0646 269.374 77.0646C268.863 77.0646 268.432 77.2022 268.081 77.4773C267.73 77.7524 267.464 78.1236 267.286 78.5909C267.107 79.0549 267.017 79.5736 267.017 80.147C267.017 80.7304 267.108 81.2457 267.29 81.6932C267.473 82.1373 267.74 82.4853 268.091 82.7372C268.442 82.9858 268.87 83.1101 269.374 83.1101ZM280.998 84.174C280.538 84.174 280.117 84.0845 279.736 83.9055C279.354 83.7232 279.051 83.4614 278.826 83.12C278.6 82.7753 278.488 82.3577 278.488 81.8672C278.488 81.4893 278.559 81.1712 278.702 80.9126C278.844 80.6541 279.046 80.442 279.308 80.2763C279.57 80.1106 279.88 79.9796 280.238 79.8835C280.596 79.7874 280.99 79.7128 281.421 79.6598C281.849 79.6068 282.21 79.5604 282.505 79.5206C282.803 79.4808 283.03 79.4179 283.186 79.3317C283.342 79.2455 283.42 79.1063 283.42 78.9141V78.7351C283.42 78.2147 283.264 77.8054 282.952 77.5071C282.644 77.2055 282.2 77.0547 281.62 77.0547C281.07 77.0547 280.621 77.1757 280.273 77.4176C279.928 77.6596 279.686 77.9446 279.547 78.2727L278.706 77.9695C278.879 77.5518 279.117 77.2187 279.422 76.9702C279.727 76.7183 280.069 76.5376 280.447 76.4283C280.824 76.3156 281.207 76.2592 281.595 76.2592C281.887 76.2592 282.19 76.2973 282.505 76.3736C282.823 76.4498 283.118 76.5824 283.39 76.7713C283.662 76.9569 283.882 77.2171 284.051 77.5518C284.22 77.8833 284.305 78.3042 284.305 78.8146V84H283.42V82.7919H283.365C283.259 83.0173 283.101 83.236 282.893 83.4482C282.684 83.6603 282.422 83.8343 282.107 83.9702C281.792 84.1061 281.423 84.174 280.998 84.174ZM281.118 83.3636C281.588 83.3636 281.996 83.2592 282.341 83.0504C282.685 82.8416 282.951 82.5649 283.136 82.2202C283.325 81.8722 283.42 81.4893 283.42 81.0717V79.968C283.353 80.031 283.242 80.0874 283.086 80.1371C282.934 80.1868 282.757 80.2315 282.555 80.2713C282.356 80.3078 282.157 80.3393 281.958 80.3658C281.759 80.3923 281.58 80.4155 281.421 80.4354C280.99 80.4884 280.622 80.5713 280.317 80.6839C280.012 80.7966 279.779 80.9524 279.616 81.1513C279.454 81.3468 279.373 81.5987 279.373 81.907C279.373 82.371 279.538 82.7306 279.87 82.9858C280.201 83.2377 280.617 83.3636 281.118 83.3636ZM287.544 79.2273V84H286.659V76.3636H287.519V77.5618H287.598C287.777 77.1707 288.056 76.8575 288.433 76.6222C288.815 76.3835 289.285 76.2642 289.845 76.2642C290.359 76.2642 290.81 76.3719 291.198 76.5874C291.589 76.7995 291.892 77.1127 292.107 77.527C292.326 77.9413 292.436 78.45 292.436 79.0533V84H291.551V79.108C291.551 78.4815 291.375 77.986 291.024 77.6214C290.676 77.2569 290.208 77.0746 289.622 77.0746C289.221 77.0746 288.864 77.1607 288.553 77.3331C288.241 77.5054 287.994 77.754 287.812 78.0788C287.633 78.4003 287.544 78.7831 287.544 79.2273ZM297.515 84.1591C296.889 84.1591 296.34 83.9934 295.87 83.6619C295.399 83.3305 295.031 82.8681 294.766 82.2749C294.504 81.6816 294.373 80.9905 294.373 80.2017C294.373 79.4162 294.504 78.7285 294.766 78.1385C295.031 77.5452 295.401 77.0845 295.875 76.7564C296.349 76.425 296.9 76.2592 297.53 76.2592C297.994 76.2592 298.38 76.3421 298.689 76.5078C298.997 76.6702 299.244 76.8724 299.429 77.1143C299.615 77.3563 299.759 77.5916 299.862 77.8203H299.941V73.8182H300.831V84H299.966V82.5831H299.862C299.759 82.8151 299.613 83.0537 299.424 83.299C299.235 83.541 298.985 83.7448 298.674 83.9105C298.365 84.0762 297.979 84.1591 297.515 84.1591ZM297.62 83.3487C298.114 83.3487 298.534 83.2145 298.882 82.946C299.23 82.6742 299.496 82.3014 299.678 81.8274C299.864 81.3501 299.956 80.8033 299.956 80.1868C299.956 79.5769 299.865 79.0384 299.683 78.571C299.501 78.1004 299.235 77.7325 298.887 77.4673C298.539 77.1989 298.117 77.0646 297.62 77.0646C297.109 77.0646 296.678 77.2038 296.327 77.4822C295.979 77.7573 295.714 78.1302 295.532 78.6009C295.353 79.0715 295.263 79.6001 295.263 80.1868C295.263 80.7801 295.354 81.3153 295.537 81.7926C295.719 82.2699 295.984 82.6494 296.332 82.9311C296.683 83.2095 297.113 83.3487 297.62 83.3487ZM307.299 84V76.3636H308.189V84H307.299ZM307.752 75.0511C307.569 75.0511 307.414 74.9898 307.284 74.8672C307.155 74.7412 307.091 74.5904 307.091 74.4148C307.091 74.2391 307.155 74.09 307.284 73.9673C307.414 73.8414 307.569 73.7784 307.752 73.7784C307.934 73.7784 308.09 73.8414 308.219 73.9673C308.348 74.09 308.413 74.2391 308.413 74.4148C308.413 74.5904 308.348 74.7412 308.219 74.8672C308.09 74.9898 307.934 75.0511 307.752 75.0511ZM311.415 79.2273V84H310.53V76.3636H311.39V77.5618H311.469C311.648 77.1707 311.927 76.8575 312.305 76.6222C312.686 76.3835 313.156 76.2642 313.716 76.2642C314.23 76.2642 314.681 76.3719 315.069 76.5874C315.46 76.7995 315.763 77.1127 315.979 77.527C316.197 77.9413 316.307 78.45 316.307 79.0533V84H315.422V79.108C315.422 78.4815 315.246 77.986 314.895 77.6214C314.547 77.2569 314.079 77.0746 313.493 77.0746C313.092 77.0746 312.735 77.1607 312.424 77.3331C312.112 77.5054 311.865 77.754 311.683 78.0788C311.504 78.4003 311.415 78.7831 311.415 79.2273ZM323.768 78.0391L322.957 78.2678C322.878 78.0391 322.765 77.8319 322.619 77.6463C322.473 77.4607 322.283 77.3132 322.048 77.2038C321.816 77.0945 321.527 77.0398 321.183 77.0398C320.665 77.0398 320.241 77.1624 319.91 77.4077C319.578 77.6529 319.413 77.9695 319.413 78.3572C319.413 78.6854 319.525 78.9522 319.751 79.1577C319.979 79.3598 320.331 79.5206 320.805 79.6399L321.958 79.9233C322.598 80.0791 323.077 80.326 323.395 80.6641C323.716 81.0021 323.877 81.4264 323.877 81.9368C323.877 82.3677 323.758 82.7505 323.519 83.0852C323.281 83.42 322.947 83.6835 322.52 83.8757C322.096 84.0646 321.603 84.1591 321.043 84.1591C320.298 84.1591 319.683 83.9917 319.199 83.657C318.715 83.3189 318.405 82.8317 318.269 82.1953L319.119 81.9865C319.229 82.4406 319.442 82.7836 319.761 83.0156C320.082 83.2476 320.505 83.3636 321.028 83.3636C321.615 83.3636 322.084 83.2327 322.435 82.9709C322.787 82.7057 322.962 82.3743 322.962 81.9766C322.962 81.6683 322.86 81.4098 322.654 81.201C322.449 80.9889 322.137 80.8331 321.719 80.7337L320.472 80.4354C319.809 80.2763 319.318 80.0244 319 79.6797C318.682 79.335 318.523 78.9074 318.523 78.397C318.523 77.9761 318.637 77.6065 318.866 77.2884C319.094 76.9669 319.409 76.715 319.81 76.5327C320.211 76.3504 320.669 76.2592 321.183 76.2592C321.882 76.2592 322.44 76.4183 322.858 76.7365C323.279 77.0514 323.582 77.4856 323.768 78.0391ZM328.823 76.3636V77.1342H325.178V76.3636H328.823ZM326.317 74.5341H327.207V82.0064C327.207 82.3246 327.262 82.5748 327.371 82.7571C327.48 82.9361 327.623 83.0637 327.798 83.1399C327.974 83.2128 328.161 83.2493 328.36 83.2493C328.476 83.2493 328.576 83.2427 328.659 83.2294C328.741 83.2128 328.814 83.1963 328.877 83.1797L329.066 83.9801C328.98 84.0133 328.874 84.0431 328.748 84.0696C328.622 84.0994 328.466 84.1143 328.281 84.1143C327.956 84.1143 327.643 84.0431 327.341 83.9006C327.043 83.758 326.798 83.5459 326.605 83.2642C326.413 82.9825 326.317 82.6328 326.317 82.2152V74.5341ZM332.965 84.174C332.504 84.174 332.084 84.0845 331.702 83.9055C331.321 83.7232 331.018 83.4614 330.793 83.12C330.567 82.7753 330.455 82.3577 330.455 81.8672C330.455 81.4893 330.526 81.1712 330.668 80.9126C330.811 80.6541 331.013 80.442 331.275 80.2763C331.537 80.1106 331.847 79.9796 332.205 79.8835C332.563 79.7874 332.957 79.7128 333.388 79.6598C333.815 79.6068 334.177 79.5604 334.472 79.5206C334.77 79.4808 334.997 79.4179 335.153 79.3317C335.308 79.2455 335.386 79.1063 335.386 78.9141V78.7351C335.386 78.2147 335.231 77.8054 334.919 77.5071C334.611 77.2055 334.167 77.0547 333.587 77.0547C333.036 77.0547 332.587 77.1757 332.239 77.4176C331.895 77.6596 331.653 77.9446 331.513 78.2727L330.673 77.9695C330.846 77.5518 331.084 77.2187 331.389 76.9702C331.694 76.7183 332.036 76.5376 332.413 76.4283C332.791 76.3156 333.174 76.2592 333.562 76.2592C333.853 76.2592 334.157 76.2973 334.472 76.3736C334.79 76.4498 335.085 76.5824 335.357 76.7713C335.628 76.9569 335.849 77.2171 336.018 77.5518C336.187 77.8833 336.271 78.3042 336.271 78.8146V84H335.386V82.7919H335.332C335.226 83.0173 335.068 83.236 334.859 83.4482C334.651 83.6603 334.389 83.8343 334.074 83.9702C333.759 84.1061 333.389 84.174 332.965 84.174ZM333.085 83.3636C333.555 83.3636 333.963 83.2592 334.308 83.0504C334.652 82.8416 334.917 82.5649 335.103 82.2202C335.292 81.8722 335.386 81.4893 335.386 81.0717V79.968C335.32 80.031 335.209 80.0874 335.053 80.1371C334.901 80.1868 334.723 80.2315 334.521 80.2713C334.322 80.3078 334.124 80.3393 333.925 80.3658C333.726 80.3923 333.547 80.4155 333.388 80.4354C332.957 80.4884 332.589 80.5713 332.284 80.6839C331.979 80.7966 331.746 80.9524 331.583 81.1513C331.421 81.3468 331.339 81.5987 331.339 81.907C331.339 82.371 331.505 82.7306 331.837 82.9858C332.168 83.2377 332.584 83.3636 333.085 83.3636ZM339.51 73.8182V84H338.625V73.8182H339.51ZM342.737 73.8182V84H341.852V73.8182H342.737ZM347.211 84.174C346.751 84.174 346.33 84.0845 345.949 83.9055C345.567 83.7232 345.264 83.4614 345.039 83.12C344.813 82.7753 344.701 82.3577 344.701 81.8672C344.701 81.4893 344.772 81.1712 344.914 80.9126C345.057 80.6541 345.259 80.442 345.521 80.2763C345.783 80.1106 346.093 79.9796 346.451 79.8835C346.809 79.7874 347.203 79.7128 347.634 79.6598C348.061 79.6068 348.423 79.5604 348.718 79.5206C349.016 79.4808 349.243 79.4179 349.399 79.3317C349.555 79.2455 349.632 79.1063 349.632 78.9141V78.7351C349.632 78.2147 349.477 77.8054 349.165 77.5071C348.857 77.2055 348.413 77.0547 347.833 77.0547C347.283 77.0547 346.833 77.1757 346.485 77.4176C346.141 77.6596 345.899 77.9446 345.76 78.2727L344.919 77.9695C345.092 77.5518 345.33 77.2187 345.635 76.9702C345.94 76.7183 346.282 76.5376 346.659 76.4283C347.037 76.3156 347.42 76.2592 347.808 76.2592C348.1 76.2592 348.403 76.2973 348.718 76.3736C349.036 76.4498 349.331 76.5824 349.603 76.7713C349.874 76.9569 350.095 77.2171 350.264 77.5518C350.433 77.8833 350.517 78.3042 350.517 78.8146V84H349.632V82.7919H349.578C349.472 83.0173 349.314 83.236 349.105 83.4482C348.897 83.6603 348.635 83.8343 348.32 83.9702C348.005 84.1061 347.636 84.174 347.211 84.174ZM347.331 83.3636C347.801 83.3636 348.209 83.2592 348.554 83.0504C348.898 82.8416 349.163 82.5649 349.349 82.2202C349.538 81.8722 349.632 81.4893 349.632 81.0717V79.968C349.566 80.031 349.455 80.0874 349.299 80.1371C349.147 80.1868 348.97 80.2315 348.767 80.2713C348.569 80.3078 348.37 80.3393 348.171 80.3658C347.972 80.3923 347.793 80.4155 347.634 80.4354C347.203 80.4884 346.835 80.5713 346.53 80.6839C346.225 80.7966 345.992 80.9524 345.829 81.1513C345.667 81.3468 345.586 81.5987 345.586 81.907C345.586 82.371 345.751 82.7306 346.083 82.9858C346.414 83.2377 346.83 83.3636 347.331 83.3636ZM355.879 76.3636V77.1342H352.235V76.3636H355.879ZM353.374 74.5341H354.263V82.0064C354.263 82.3246 354.318 82.5748 354.428 82.7571C354.537 82.9361 354.679 83.0637 354.855 83.1399C355.031 83.2128 355.218 83.2493 355.417 83.2493C355.533 83.2493 355.632 83.2427 355.715 83.2294C355.798 83.2128 355.871 83.1963 355.934 83.1797L356.123 83.9801C356.037 84.0133 355.931 84.0431 355.805 84.0696C355.679 84.0994 355.523 84.1143 355.337 84.1143C355.013 84.1143 354.699 84.0431 354.398 83.9006C354.099 83.758 353.854 83.5459 353.662 83.2642C353.47 82.9825 353.374 82.6328 353.374 82.2152V74.5341ZM357.899 84V76.3636H358.789V84H357.899ZM358.351 75.0511C358.169 75.0511 358.013 74.9898 357.884 74.8672C357.755 74.7412 357.69 74.5904 357.69 74.4148C357.69 74.2391 357.755 74.09 357.884 73.9673C358.013 73.8414 358.169 73.7784 358.351 73.7784C358.534 73.7784 358.689 73.8414 358.819 73.9673C358.948 74.09 359.013 74.2391 359.013 74.4148C359.013 74.5904 358.948 74.7412 358.819 74.8672C358.689 74.9898 358.534 75.0511 358.351 75.0511ZM364.097 84.1591C363.438 84.1591 362.854 83.9917 362.347 83.657C361.844 83.3222 361.449 82.8598 361.164 82.2699C360.879 81.6766 360.737 80.9922 360.737 80.2166C360.737 79.4344 360.879 78.7467 361.164 78.1534C361.449 77.5568 361.844 77.0928 362.347 76.7614C362.854 76.4266 363.438 76.2592 364.097 76.2592C364.757 76.2592 365.339 76.4266 365.842 76.7614C366.346 77.0961 366.741 77.5601 367.026 78.1534C367.314 78.7467 367.458 79.4344 367.458 80.2166C367.458 80.9922 367.316 81.6766 367.031 82.2699C366.746 82.8598 366.349 83.3222 365.842 83.657C365.339 83.9917 364.757 84.1591 364.097 84.1591ZM364.097 83.3487C364.628 83.3487 365.077 83.2062 365.445 82.9212C365.813 82.6361 366.091 82.2566 366.28 81.7827C366.472 81.3087 366.568 80.7867 366.568 80.2166C366.568 79.6465 366.472 79.1229 366.28 78.6456C366.091 78.1683 365.813 77.7855 365.445 77.4972C365.077 77.2088 364.628 77.0646 364.097 77.0646C363.57 77.0646 363.121 77.2088 362.75 77.4972C362.382 77.7855 362.102 78.1683 361.91 78.6456C361.721 79.1229 361.626 79.6465 361.626 80.2166C361.626 80.7867 361.721 81.3087 361.91 81.7827C362.102 82.2566 362.382 82.6361 362.75 82.9212C363.118 83.2062 363.567 83.3487 364.097 83.3487ZM370.286 79.2273V84H369.401V76.3636H370.261V77.5618H370.34C370.519 77.1707 370.798 76.8575 371.176 76.6222C371.557 76.3835 372.027 76.2642 372.588 76.2642C373.101 76.2642 373.552 76.3719 373.94 76.5874C374.331 76.7995 374.634 77.1127 374.85 77.527C375.068 77.9413 375.178 78.45 375.178 79.0533V84H374.293V79.108C374.293 78.4815 374.117 77.986 373.766 77.6214C373.418 77.2569 372.95 77.0746 372.364 77.0746C371.963 77.0746 371.606 77.1607 371.295 77.3331C370.983 77.5054 370.736 77.754 370.554 78.0788C370.375 78.4003 370.286 78.7831 370.286 79.2273Z" fill="black"/>
<rect width="93" height="30" transform="translate(418 40.5)" fill="black"/>
<path d="M443.509 54.0348C443.413 53.7332 443.284 53.4631 443.121 53.2244C442.962 52.9825 442.772 52.777 442.55 52.608C442.328 52.4356 442.074 52.3047 441.789 52.2152C441.507 52.1257 441.197 52.081 440.859 52.081C440.286 52.081 439.769 52.2285 439.308 52.5234C438.848 52.8184 438.483 53.2509 438.214 53.821C437.949 54.3878 437.817 55.0821 437.817 55.9041C437.817 56.7294 437.951 57.4271 438.219 57.9972C438.488 58.5672 438.856 58.9998 439.323 59.2947C439.79 59.5897 440.322 59.7372 440.919 59.7372C441.473 59.7372 441.955 59.6245 442.366 59.3991C442.78 59.1738 443.1 58.8556 443.325 58.4446C443.554 58.0303 443.668 57.5431 443.668 56.983L444.066 57.0575H441.153V55.7898H445.155V56.9482C445.155 57.8033 444.973 58.5457 444.608 59.1754C444.247 59.8018 443.746 60.2857 443.107 60.6271C442.47 60.9685 441.741 61.1392 440.919 61.1392C439.998 61.1392 439.189 60.9271 438.493 60.5028C437.8 60.0786 437.26 59.477 436.872 58.6982C436.484 57.916 436.29 56.9879 436.29 55.9141C436.29 55.102 436.403 54.3729 436.629 53.7266C436.854 53.0803 437.17 52.5317 437.578 52.081C437.989 51.6269 438.471 51.2805 439.025 51.0419C439.582 50.8 440.19 50.679 440.849 50.679C441.4 50.679 441.912 50.7602 442.386 50.9226C442.863 51.085 443.287 51.3153 443.658 51.6136C444.033 51.9119 444.343 52.2666 444.588 52.6776C444.833 53.0852 444.999 53.5376 445.085 54.0348H443.509ZM450.277 61.1541C449.524 61.1541 448.876 60.9934 448.333 60.6719C447.793 60.3471 447.375 59.8913 447.08 59.3047C446.788 58.7147 446.643 58.0237 446.643 57.2315C446.643 56.4493 446.788 55.7599 447.08 55.1634C447.375 54.5668 447.786 54.1011 448.313 53.7663C448.843 53.4316 449.463 53.2642 450.172 53.2642C450.603 53.2642 451.021 53.3355 451.425 53.478C451.83 53.6205 452.193 53.8442 452.514 54.1491C452.836 54.4541 453.089 54.8501 453.275 55.3374C453.46 55.8213 453.553 56.4096 453.553 57.1023V57.6293H447.483V56.5156H452.096C452.096 56.1245 452.017 55.7782 451.858 55.4766C451.699 55.1716 451.475 54.9313 451.187 54.7557C450.902 54.58 450.567 54.4922 450.182 54.4922C449.765 54.4922 449.4 54.5949 449.089 54.8004C448.78 55.0026 448.542 55.2678 448.373 55.5959C448.207 55.9207 448.124 56.2737 448.124 56.6548V57.5249C448.124 58.0353 448.214 58.4695 448.393 58.8274C448.575 59.1854 448.828 59.4588 449.153 59.6477C449.478 59.8333 449.858 59.9261 450.292 59.9261C450.573 59.9261 450.83 59.8864 451.062 59.8068C451.294 59.724 451.495 59.6013 451.664 59.4389C451.833 59.2765 451.962 59.076 452.052 58.8374L453.459 59.0909C453.346 59.5052 453.144 59.8681 452.852 60.1797C452.564 60.4879 452.201 60.7282 451.763 60.9006C451.329 61.0696 450.834 61.1541 450.277 61.1541ZM458.767 53.3636V54.5568H454.596V53.3636H458.767ZM455.714 51.5341H457.201V58.7578C457.201 59.0462 457.244 59.2633 457.33 59.4091C457.416 59.5516 457.527 59.6494 457.663 59.7024C457.803 59.7521 457.953 59.777 458.116 59.777C458.235 59.777 458.339 59.7687 458.429 59.7521C458.518 59.7356 458.588 59.7223 458.638 59.7124L458.906 60.9403C458.82 60.9735 458.697 61.0066 458.538 61.0398C458.379 61.0762 458.18 61.0961 457.942 61.0994C457.551 61.1061 457.186 61.0365 456.848 60.8906C456.51 60.7448 456.237 60.5194 456.028 60.2145C455.819 59.9096 455.714 59.5268 455.714 59.0661V51.5341ZM472.454 50.8182V61H471.042L465.866 53.5327H465.772V61H464.236V50.8182H465.658L470.838 58.2955H470.933V50.8182H472.454ZM477.792 61.1541C477.076 61.1541 476.451 60.9901 475.918 60.6619C475.384 60.3338 474.97 59.8748 474.675 59.2848C474.38 58.6948 474.232 58.0054 474.232 57.2166C474.232 56.4245 474.38 55.7318 474.675 55.1385C474.97 54.5452 475.384 54.0845 475.918 53.7564C476.451 53.4283 477.076 53.2642 477.792 53.2642C478.508 53.2642 479.133 53.4283 479.666 53.7564C480.2 54.0845 480.614 54.5452 480.909 55.1385C481.204 55.7318 481.352 56.4245 481.352 57.2166C481.352 58.0054 481.204 58.6948 480.909 59.2848C480.614 59.8748 480.2 60.3338 479.666 60.6619C479.133 60.9901 478.508 61.1541 477.792 61.1541ZM477.797 59.9062C478.261 59.9062 478.646 59.7836 478.95 59.5384C479.255 59.2931 479.481 58.9666 479.627 58.5589C479.776 58.1513 479.85 57.7022 479.85 57.2116C479.85 56.7244 479.776 56.277 479.627 55.8693C479.481 55.4583 479.255 55.1286 478.95 54.88C478.646 54.6314 478.261 54.5071 477.797 54.5071C477.33 54.5071 476.942 54.6314 476.634 54.88C476.329 55.1286 476.102 55.4583 475.953 55.8693C475.807 56.277 475.734 56.7244 475.734 57.2116C475.734 57.7022 475.807 58.1513 475.953 58.5589C476.102 58.9666 476.329 59.2931 476.634 59.5384C476.942 59.7836 477.33 59.9062 477.797 59.9062ZM484.434 61L482.187 53.3636H483.723L485.22 58.9716H485.294L486.796 53.3636H488.332L489.823 58.9467H489.898L491.384 53.3636H492.921L490.678 61H489.162L487.611 55.4865H487.497L485.945 61H484.434Z" fill="white"/>
</svg>
